{"glyphs":{"0":{"ha":824,"x_min":0,"x_max":0,"o":"m 411 -18 b 75 311 251 -18 75 88 l 75 661 b 411 990 75 885 251 990 b 747 661 571 990 747 885 l 747 311 b 411 -18 747 88 571 -18 m 215 318 b 411 118 215 190 304 118 b 608 318 518 118 608 190 l 608 654 b 411 854 608 781 518 854 b 215 654 306 854 215 781 l 215 318 "},"1":{"ha":571,"x_min":0,"x_max":0,"o":"m 315 932 b 61 635 315 689 174 635 l 61 776 b 306 951 178 776 306 832 l 306 972 l 456 972 l 456 0 l 315 0 l 315 932 "},"2":{"ha":804,"x_min":0,"x_max":0,"o":"m 76 267 l 458 504 b 576 682 543 557 576 613 b 390 856 576 765 517 856 b 201 686 283 856 214 776 l 74 746 b 390 990 97 878 218 990 b 722 685 606 990 722 840 b 526 389 722 556 661 467 l 100 135 l 729 135 l 729 0 l 76 0 "},"3":{"ha":826,"x_min":0,"x_max":0,"o":"m 408 -17 b 75 208 231 -17 113 85 l 197 264 b 408 117 221 189 300 117 b 611 293 536 117 611 193 b 414 451 611 369 544 451 l 339 451 l 339 579 l 404 579 b 576 718 524 579 576 653 b 410 856 576 786 519 856 b 222 688 299 856 236 776 l 94 747 b 413 990 121 879 233 990 b 715 763 603 990 715 876 b 476 572 715 656 632 572 b 751 293 649 556 751 426 b 408 -17 751 133 643 -17 "},"4":{"ha":807,"x_min":0,"x_max":0,"o":"m 489 193 l 61 193 l 61 515 l 365 972 l 535 972 l 85 329 l 489 329 l 489 542 l 628 542 l 628 329 l 758 329 l 758 193 l 628 193 l 628 0 l 489 0 "},"5":{"ha":824,"x_min":0,"x_max":0,"o":"m 400 -17 b 75 206 224 -17 111 89 l 199 264 b 399 118 215 200 283 118 b 606 324 510 118 606 196 b 392 526 606 429 519 526 b 208 422 290 526 231 463 l 81 476 l 115 972 l 679 972 l 679 844 l 235 844 l 206 436 b 451 642 231 561 324 642 b 749 324 624 642 749 496 b 400 -17 749 132 604 -17 "},"6":{"ha":842,"x_min":0,"x_max":0,"o":"m 419 -18 b 75 322 231 -18 75 121 b 153 542 75 411 117 485 l 418 972 l 585 972 l 276 490 b 483 618 335 581 411 618 b 767 322 646 618 767 482 b 419 -18 767 121 619 -18 m 214 322 b 419 115 214 203 306 115 b 625 322 533 115 625 203 b 419 526 625 433 540 526 b 214 322 300 526 214 433 "},"7":{"ha":796,"x_min":0,"x_max":0,"o":"m 697 838 l 211 838 l 211 722 l 75 722 l 75 972 l 721 972 l 721 608 l 376 0 l 204 0 "},"8":{"ha":835,"x_min":0,"x_max":0,"o":"m 422 -18 b 75 249 238 -18 75 81 b 372 474 75 418 231 497 l 318 494 b 129 733 213 538 129 611 b 419 990 129 886 256 990 b 710 756 592 990 710 888 b 453 583 710 650 604 544 l 535 550 b 760 278 675 494 760 403 b 422 -18 760 108 629 -18 m 218 279 b 422 114 218 178 313 114 b 613 276 539 114 613 183 b 469 435 613 336 572 393 l 407 460 b 218 279 321 450 218 393 m 271 736 b 388 610 271 675 317 639 l 432 592 b 569 735 508 606 569 663 b 418 861 569 799 517 861 b 271 736 333 861 271 806 "},"9":{"ha":842,"x_min":0,"x_max":0,"o":"m 422 446 b 628 650 542 446 628 539 b 421 857 628 769 536 857 b 217 650 307 857 217 774 b 422 446 217 539 297 446 m 75 650 b 421 990 75 851 222 990 b 767 650 611 990 767 851 b 689 431 767 561 725 488 l 424 0 l 257 0 l 565 481 b 358 354 507 392 438 354 b 75 650 196 354 75 490 "},"\u0000":{"ha":0,"x_min":0,"x_max":0,"o":""},"\r":{"ha":0,"x_min":0,"x_max":0,"o":""}," ":{"ha":350,"x_min":0,"x_max":0,"o":""}," ":{"ha":350,"x_min":0,"x_max":0,"o":""},"A":{"ha":931,"x_min":0,"x_max":0,"o":"m 329 972 l 603 972 l 913 0 l 764 0 l 696 215 l 235 215 l 167 0 l 19 0 m 654 350 l 465 950 l 276 350 "},"Á":{"ha":931,"x_min":0,"x_max":0,"o":"m 329 972 l 603 972 l 913 0 l 764 0 l 696 215 l 235 215 l 167 0 l 19 0 m 654 350 l 465 950 l 276 350 m 479 1247 l 619 1247 l 513 1032 l 407 1032 "},"Ă":{"ha":931,"x_min":0,"x_max":0,"o":"m 329 972 l 603 972 l 913 0 l 764 0 l 696 215 l 235 215 l 167 0 l 19 0 m 654 350 l 465 950 l 276 350 m 282 1240 l 385 1240 l 385 1224 b 474 1140 385 1178 413 1140 b 561 1224 532 1140 561 1178 l 561 1240 l 664 1240 l 664 1221 b 474 1040 664 1111 589 1040 b 282 1221 357 1040 282 1111 "},"Ǎ":{"ha":931,"x_min":0,"x_max":0,"o":"m 329 972 l 603 972 l 913 0 l 764 0 l 696 215 l 235 215 l 167 0 l 19 0 m 390 1249 l 472 1056 l 553 1249 l 674 1249 l 583 1033 l 361 1033 l 271 1249 m 654 350 l 465 950 l 276 350 "},"Â":{"ha":931,"x_min":0,"x_max":0,"o":"m 329 972 l 603 972 l 913 0 l 764 0 l 696 215 l 235 215 l 167 0 l 19 0 m 360 1247 l 582 1247 l 672 1032 l 553 1032 l 471 1225 l 390 1032 l 269 1032 m 654 350 l 465 950 l 276 350 "},"Ä":{"ha":931,"x_min":0,"x_max":0,"o":"m 329 972 l 603 972 l 913 0 l 764 0 l 696 215 l 235 215 l 167 0 l 19 0 m 272 1235 l 418 1235 l 418 1079 l 272 1079 m 654 350 l 465 950 l 276 350 m 519 1235 l 665 1235 l 665 1079 l 519 1079 "},"À":{"ha":931,"x_min":0,"x_max":0,"o":"m 329 972 l 603 972 l 913 0 l 764 0 l 696 215 l 235 215 l 167 0 l 19 0 m 654 350 l 465 950 l 276 350 m 469 1247 l 542 1032 l 436 1032 l 329 1247 "},"Ā":{"ha":931,"x_min":0,"x_max":0,"o":"m 329 972 l 603 972 l 913 0 l 764 0 l 696 215 l 235 215 l 167 0 l 19 0 m 654 350 l 465 950 l 276 350 m 300 1196 l 644 1196 l 644 1078 l 300 1078 "},"Ą":{"ha":931,"x_min":0,"x_max":0,"o":"m 329 972 l 603 972 l 913 0 l 911 0 l 825 -112 b 808 -150 814 -125 808 -137 b 851 -192 808 -175 828 -192 b 889 -182 865 -192 878 -187 l 911 -272 b 819 -293 892 -283 857 -293 b 688 -172 753 -293 688 -251 b 725 -75 688 -132 700 -108 l 783 0 l 764 0 l 696 215 l 235 215 l 167 0 l 19 0 m 654 350 l 465 950 l 276 350 "},"Å":{"ha":931,"x_min":0,"x_max":0,"o":"m 329 972 l 603 972 l 913 0 l 764 0 l 696 215 l 235 215 l 167 0 l 19 0 m 654 350 l 465 950 l 276 350 m 325 1158 b 471 1301 325 1242 388 1301 b 621 1160 560 1301 621 1242 b 472 1017 621 1078 558 1017 b 325 1158 388 1017 325 1078 m 413 1158 b 472 1097 413 1125 436 1097 b 533 1160 510 1097 533 1125 b 471 1221 533 1193 510 1221 b 413 1158 436 1221 413 1193 "},"Ã":{"ha":931,"x_min":0,"x_max":0,"o":"m 329 972 l 603 972 l 913 0 l 764 0 l 696 215 l 235 215 l 167 0 l 19 0 m 246 1079 b 374 1218 249 1167 303 1218 b 464 1189 408 1218 440 1203 l 499 1168 b 547 1149 515 1158 532 1149 b 597 1211 578 1149 597 1172 l 597 1221 l 686 1181 b 558 1042 683 1094 629 1042 b 471 1071 524 1042 497 1054 l 438 1092 b 386 1111 422 1101 407 1111 b 335 1047 356 1111 335 1086 l 335 1036 l 246 1079 m 654 350 l 465 950 l 276 350 "},"Æ":{"ha":1260,"x_min":0,"x_max":0,"o":"m 1175 840 l 639 840 l 733 560 l 1128 560 l 1128 431 l 772 431 l 872 131 l 1190 131 l 1190 0 l 764 0 l 696 215 l 236 215 l 167 0 l 19 0 l 333 972 l 1175 972 m 656 350 l 465 950 l 275 350 "},"B":{"ha":878,"x_min":0,"x_max":0,"o":"m 124 972 l 494 972 b 778 751 676 972 778 875 b 551 558 778 653 717 558 b 810 292 703 549 810 444 b 503 0 810 122 681 0 l 124 0 m 497 131 b 663 292 592 131 663 199 b 497 440 663 383 592 440 l 267 440 l 267 131 m 482 563 b 631 710 575 563 631 626 b 482 842 631 788 571 842 l 267 842 l 267 563 "},"C":{"ha":1074,"x_min":0,"x_max":0,"o":"m 560 -18 b 61 486 265 -18 61 199 b 560 990 61 771 269 990 b 994 719 774 990 926 875 l 869 653 b 560 854 828 765 713 854 b 208 486 357 854 208 700 b 560 118 208 269 357 118 b 885 358 708 118 842 207 l 1013 294 b 560 -18 951 114 781 -18 "},"Ć":{"ha":1074,"x_min":0,"x_max":0,"o":"m 560 -18 b 61 486 265 -18 61 199 b 560 990 61 771 269 990 b 994 719 774 990 926 875 l 869 653 b 560 854 828 765 713 854 b 208 486 357 854 208 700 b 560 118 208 269 357 118 b 885 358 708 118 842 207 l 1013 294 b 560 -18 951 114 781 -18 m 564 1247 l 704 1247 l 597 1032 l 492 1032 "},"Č":{"ha":1074,"x_min":0,"x_max":0,"o":"m 560 -18 b 61 486 265 -18 61 199 b 560 990 61 771 269 990 b 994 719 774 990 926 875 l 869 653 b 560 854 828 765 713 854 b 208 486 357 854 208 700 b 560 118 208 269 357 118 b 885 358 708 118 842 207 l 1013 294 b 560 -18 951 114 781 -18 m 475 1249 l 557 1056 l 638 1249 l 758 1249 l 668 1033 l 446 1033 l 356 1249 "},"Ç":{"ha":1074,"x_min":0,"x_max":0,"o":"m 575 -293 b 467 -229 529 -293 486 -269 l 532 -189 b 574 -214 540 -206 556 -214 b 621 -167 597 -214 621 -196 b 574 -121 621 -139 597 -121 b 532 -144 556 -121 540 -131 l 460 -101 l 488 -14 b 61 486 233 18 61 222 b 560 990 61 771 269 990 b 994 719 774 990 926 875 l 869 653 b 560 854 828 765 713 854 b 208 486 357 854 208 700 b 560 118 208 269 357 118 b 885 358 708 118 842 207 l 1013 294 b 575 -18 953 118 789 -11 l 539 -122 b 614 -65 554 -79 585 -65 b 707 -168 663 -65 707 -108 b 575 -293 707 -242 653 -293 "},"Ĉ":{"ha":1074,"x_min":0,"x_max":0,"o":"m 560 -18 b 61 486 265 -18 61 199 b 560 990 61 771 269 990 b 994 719 774 990 926 875 l 869 653 b 560 854 828 765 713 854 b 208 486 357 854 208 700 b 560 118 208 269 357 118 b 885 358 708 118 842 207 l 1013 294 b 560 -18 951 114 781 -18 m 444 1247 l 667 1247 l 757 1032 l 638 1032 l 556 1225 l 475 1032 l 354 1032 "},"Ċ":{"ha":1074,"x_min":0,"x_max":0,"o":"m 560 -18 b 61 486 265 -18 61 199 b 560 990 61 771 269 990 b 994 719 774 990 926 875 l 869 653 b 560 854 828 765 713 854 b 208 486 357 854 208 700 b 560 118 208 269 357 118 b 885 358 708 118 842 207 l 1013 294 b 560 -18 951 114 781 -18 m 488 1236 l 632 1236 l 632 1072 l 488 1072 "},"D":{"ha":989,"x_min":0,"x_max":0,"o":"m 124 972 l 431 972 b 928 486 735 972 928 758 b 431 0 928 194 735 0 l 124 0 m 418 131 b 779 486 642 131 779 261 b 418 842 779 701 642 842 l 268 842 l 268 131 "},"Ð":{"ha":1001,"x_min":0,"x_max":0,"o":"m 42 553 l 136 553 l 136 972 l 443 972 b 940 486 747 972 940 758 b 443 0 940 194 747 0 l 136 0 l 136 431 l 42 431 m 431 131 b 792 486 654 131 792 261 b 431 842 792 701 654 842 l 281 842 l 281 553 l 542 553 l 542 431 l 281 431 l 281 131 "},"Ď":{"ha":989,"x_min":0,"x_max":0,"o":"m 124 972 l 431 972 b 928 486 735 972 928 758 b 431 0 928 194 735 0 l 124 0 m 418 131 b 779 486 642 131 779 261 b 418 842 779 701 642 842 l 268 842 l 268 131 m 396 1249 l 478 1056 l 558 1249 l 679 1249 l 589 1033 l 367 1033 l 276 1249 "},"Đ":{"ha":1001,"x_min":0,"x_max":0,"o":"m 42 553 l 136 553 l 136 972 l 443 972 b 940 486 747 972 940 758 b 443 0 940 194 747 0 l 136 0 l 136 431 l 42 431 m 431 131 b 792 486 654 131 792 261 b 431 842 792 701 654 842 l 281 842 l 281 553 l 542 553 l 542 431 l 281 431 l 281 131 "},"E":{"ha":793,"x_min":0,"x_max":0,"o":"m 124 972 l 708 972 l 708 840 l 267 840 l 267 560 l 661 560 l 661 431 l 267 431 l 267 131 l 724 131 l 724 0 l 124 0 "},"É":{"ha":793,"x_min":0,"x_max":0,"o":"m 124 972 l 708 972 l 708 840 l 267 840 l 267 560 l 661 560 l 661 431 l 267 431 l 267 131 l 724 131 l 724 0 l 124 0 m 443 1247 l 583 1247 l 476 1032 l 371 1032 "},"Ĕ":{"ha":793,"x_min":0,"x_max":0,"o":"m 124 972 l 708 972 l 708 840 l 267 840 l 267 560 l 661 560 l 661 431 l 267 431 l 267 131 l 724 131 l 724 0 l 124 0 m 244 1240 l 347 1240 l 347 1224 b 436 1140 347 1178 375 1140 b 524 1224 494 1140 524 1178 l 524 1240 l 626 1240 l 626 1221 b 436 1040 626 1111 551 1040 b 244 1221 319 1040 244 1111 "},"Ě":{"ha":793,"x_min":0,"x_max":0,"o":"m 124 972 l 708 972 l 708 840 l 267 840 l 267 560 l 661 560 l 661 431 l 267 431 l 267 131 l 724 131 l 724 0 l 124 0 m 354 1249 l 436 1056 l 517 1249 l 638 1249 l 547 1033 l 325 1033 l 235 1249 "},"Ê":{"ha":793,"x_min":0,"x_max":0,"o":"m 124 972 l 708 972 l 708 840 l 267 840 l 267 560 l 661 560 l 661 431 l 267 431 l 267 131 l 724 131 l 724 0 l 124 0 m 324 1247 l 546 1247 l 636 1032 l 517 1032 l 435 1225 l 354 1032 l 233 1032 "},"Ë":{"ha":793,"x_min":0,"x_max":0,"o":"m 124 972 l 708 972 l 708 840 l 267 840 l 267 560 l 661 560 l 661 431 l 267 431 l 267 131 l 724 131 l 724 0 l 124 0 m 236 1235 l 382 1235 l 382 1079 l 236 1079 m 483 1235 l 629 1235 l 629 1079 l 483 1079 "},"Ė":{"ha":793,"x_min":0,"x_max":0,"o":"m 124 972 l 708 972 l 708 840 l 267 840 l 267 560 l 661 560 l 661 431 l 267 431 l 267 131 l 724 131 l 724 0 l 124 0 m 367 1236 l 511 1236 l 511 1072 l 367 1072 "},"È":{"ha":793,"x_min":0,"x_max":0,"o":"m 124 972 l 708 972 l 708 840 l 267 840 l 267 560 l 661 560 l 661 431 l 267 431 l 267 131 l 724 131 l 724 0 l 124 0 m 432 1247 l 504 1032 l 399 1032 l 292 1247 "},"Ē":{"ha":793,"x_min":0,"x_max":0,"o":"m 124 972 l 708 972 l 708 840 l 267 840 l 267 560 l 661 560 l 661 431 l 267 431 l 267 131 l 724 131 l 724 0 l 124 0 m 264 1196 l 608 1196 l 608 1078 l 264 1078 "},"Ę":{"ha":793,"x_min":0,"x_max":0,"o":"m 124 972 l 708 972 l 708 840 l 267 840 l 267 560 l 661 560 l 661 431 l 267 431 l 267 131 l 724 131 l 724 0 l 722 0 l 636 -112 b 619 -150 625 -125 619 -137 b 663 -192 619 -175 639 -192 b 700 -182 676 -192 689 -187 l 722 -272 b 631 -293 703 -283 668 -293 b 499 -172 564 -293 499 -251 b 536 -75 499 -132 511 -108 l 594 0 l 124 0 "},"Ẽ":{"ha":793,"x_min":0,"x_max":0,"o":"m 124 972 l 708 972 l 708 840 l 267 840 l 267 560 l 661 560 l 661 431 l 267 431 l 267 131 l 724 131 l 724 0 l 124 0 m 210 1079 b 338 1218 213 1167 267 1218 b 428 1189 372 1218 404 1203 l 463 1168 b 511 1149 479 1158 496 1149 b 561 1211 542 1149 561 1172 l 561 1221 l 650 1181 b 522 1042 647 1094 593 1042 b 435 1071 488 1042 461 1054 l 401 1092 b 350 1111 386 1101 371 1111 b 299 1047 319 1111 299 1086 l 299 1036 l 210 1079 "},"F":{"ha":767,"x_min":0,"x_max":0,"o":"m 124 972 l 708 972 l 708 840 l 267 840 l 267 542 l 661 542 l 661 413 l 267 413 l 267 0 l 124 0 "},"G":{"ha":1118,"x_min":0,"x_max":0,"o":"m 522 -18 b 61 486 267 -18 61 192 b 558 990 61 771 274 990 b 988 740 769 990 918 882 l 864 671 b 558 854 819 768 714 854 b 208 486 358 854 208 700 b 556 118 208 269 353 118 b 885 400 732 118 874 244 l 885 401 l 565 401 l 565 531 l 1029 531 l 1029 0 l 888 0 l 888 353 b 522 -18 888 131 753 -18 "},"Ğ":{"ha":1118,"x_min":0,"x_max":0,"o":"m 522 -18 b 61 486 267 -18 61 192 b 558 990 61 771 274 990 b 988 740 769 990 918 882 l 864 671 b 558 854 819 768 714 854 b 208 486 358 854 208 700 b 556 118 208 269 353 118 b 885 400 732 118 874 244 l 885 401 l 565 401 l 565 531 l 1029 531 l 1029 0 l 888 0 l 888 353 b 522 -18 888 131 753 -18 m 382 1240 l 485 1240 l 485 1224 b 574 1140 485 1178 513 1140 b 661 1224 632 1140 661 1178 l 661 1240 l 764 1240 l 764 1221 b 574 1040 764 1111 689 1040 b 382 1221 457 1040 382 1111 "},"Ǧ":{"ha":1118,"x_min":0,"x_max":0,"o":"m 522 -18 b 61 486 267 -18 61 192 b 558 990 61 771 274 990 b 988 740 769 990 918 882 l 864 671 b 558 854 819 768 714 854 b 208 486 358 854 208 700 b 556 118 208 269 353 118 b 885 400 732 118 874 244 l 885 401 l 565 401 l 565 531 l 1029 531 l 1029 0 l 888 0 l 888 353 b 522 -18 888 131 753 -18 m 490 1249 l 572 1056 l 653 1249 l 774 1249 l 683 1033 l 461 1033 l 371 1249 "},"Ĝ":{"ha":1118,"x_min":0,"x_max":0,"o":"m 522 -18 b 61 486 267 -18 61 192 b 558 990 61 771 274 990 b 988 740 769 990 918 882 l 864 671 b 558 854 819 768 714 854 b 208 486 358 854 208 700 b 556 118 208 269 353 118 b 885 400 732 118 874 244 l 885 401 l 565 401 l 565 531 l 1029 531 l 1029 0 l 888 0 l 888 353 b 522 -18 888 131 753 -18 m 460 1247 l 682 1247 l 772 1032 l 653 1032 l 571 1225 l 490 1032 l 369 1032 "},"Ģ":{"ha":1118,"x_min":0,"x_max":0,"o":"m 522 -18 b 61 486 267 -18 61 192 b 558 990 61 771 274 990 b 988 740 769 990 918 882 l 864 671 b 558 854 819 768 714 854 b 208 486 358 854 208 700 b 556 118 208 269 353 118 b 885 400 732 118 874 244 l 885 401 l 565 401 l 565 531 l 1029 531 l 1029 0 l 888 0 l 888 353 b 522 -18 888 131 753 -18 m 489 -262 b 553 -196 525 -256 553 -242 l 553 -192 l 503 -192 l 503 -58 l 644 -58 l 644 -199 b 515 -340 644 -279 593 -329 l 489 -262 "},"Ġ":{"ha":1118,"x_min":0,"x_max":0,"o":"m 522 -18 b 61 486 267 -18 61 192 b 558 990 61 771 274 990 b 988 740 769 990 918 882 l 864 671 b 558 854 819 768 714 854 b 208 486 358 854 208 700 b 556 118 208 269 353 118 b 885 400 732 118 874 244 l 885 401 l 565 401 l 565 531 l 1029 531 l 1029 0 l 888 0 l 888 353 b 522 -18 888 131 753 -18 m 503 1236 l 647 1236 l 647 1072 l 503 1072 "},"H":{"ha":1006,"x_min":0,"x_max":0,"o":"m 738 426 l 268 426 l 268 0 l 124 0 l 124 972 l 268 972 l 268 563 l 738 563 l 738 972 l 882 972 l 882 0 l 738 0 "},"Ħ":{"ha":1047,"x_min":0,"x_max":0,"o":"m 71 838 l 144 838 l 144 972 l 289 972 l 289 838 l 758 838 l 758 972 l 903 972 l 903 838 l 976 838 l 976 718 l 903 718 l 903 0 l 758 0 l 758 426 l 289 426 l 289 0 l 144 0 l 144 718 l 71 718 m 758 563 l 758 718 l 289 718 l 289 563 "},"Ĥ":{"ha":1006,"x_min":0,"x_max":0,"o":"m 738 426 l 268 426 l 268 0 l 124 0 l 124 972 l 268 972 l 268 563 l 738 563 l 738 972 l 882 972 l 882 0 l 738 0 m 396 1247 l 618 1247 l 708 1032 l 589 1032 l 507 1225 l 426 1032 l 306 1032 "},"I":{"ha":701,"x_min":0,"x_max":0,"o":"m 93 132 l 279 132 l 279 840 l 93 840 l 93 972 l 608 972 l 608 840 l 422 840 l 422 132 l 608 132 l 608 0 l 93 0 "},"Ĳ":{"ha":1513,"x_min":0,"x_max":0,"o":"m 93 132 l 279 132 l 279 840 l 93 840 l 93 972 l 608 972 l 608 840 l 422 840 l 422 132 l 608 132 l 608 0 l 93 0 m 857 268 b 1058 118 889 171 971 118 b 1271 319 1197 118 1271 213 l 1271 840 l 918 840 l 918 972 l 1413 972 l 1413 319 b 1058 -18 1413 133 1289 -18 b 742 197 894 -18 782 83 "},"Í":{"ha":701,"x_min":0,"x_max":0,"o":"m 93 132 l 279 132 l 279 840 l 93 840 l 93 972 l 608 972 l 608 840 l 422 840 l 422 132 l 608 132 l 608 0 l 93 0 m 365 1247 l 506 1247 l 399 1032 l 293 1032 "},"Ĭ":{"ha":701,"x_min":0,"x_max":0,"o":"m 93 132 l 279 132 l 279 840 l 93 840 l 93 972 l 608 972 l 608 840 l 422 840 l 422 132 l 608 132 l 608 0 l 93 0 m 167 1240 l 269 1240 l 269 1224 b 358 1140 269 1178 297 1140 b 446 1224 417 1140 446 1178 l 446 1240 l 549 1240 l 549 1221 b 358 1040 549 1111 474 1040 b 167 1221 242 1040 167 1111 "},"Ǐ":{"ha":701,"x_min":0,"x_max":0,"o":"m 93 132 l 279 132 l 279 840 l 93 840 l 93 972 l 608 972 l 608 840 l 422 840 l 422 132 l 608 132 l 608 0 l 93 0 m 276 1249 l 358 1056 l 439 1249 l 560 1249 l 469 1033 l 247 1033 l 157 1249 "},"Î":{"ha":701,"x_min":0,"x_max":0,"o":"m 93 132 l 279 132 l 279 840 l 93 840 l 93 972 l 608 972 l 608 840 l 422 840 l 422 132 l 608 132 l 608 0 l 93 0 m 246 1247 l 468 1247 l 558 1032 l 439 1032 l 357 1225 l 276 1032 l 156 1032 "},"Ï":{"ha":701,"x_min":0,"x_max":0,"o":"m 93 132 l 279 132 l 279 840 l 93 840 l 93 972 l 608 972 l 608 840 l 422 840 l 422 132 l 608 132 l 608 0 l 93 0 m 157 1235 l 303 1235 l 303 1079 l 157 1079 m 404 1235 l 550 1235 l 550 1079 l 404 1079 "},"İ":{"ha":701,"x_min":0,"x_max":0,"o":"m 93 132 l 279 132 l 279 840 l 93 840 l 93 972 l 608 972 l 608 840 l 422 840 l 422 132 l 608 132 l 608 0 l 93 0 m 288 1236 l 432 1236 l 432 1072 l 288 1072 "},"Ì":{"ha":701,"x_min":0,"x_max":0,"o":"m 93 132 l 279 132 l 279 840 l 93 840 l 93 972 l 608 972 l 608 840 l 422 840 l 422 132 l 608 132 l 608 0 l 93 0 m 354 1247 l 426 1032 l 321 1032 l 214 1247 "},"Ī":{"ha":701,"x_min":0,"x_max":0,"o":"m 93 132 l 279 132 l 279 840 l 93 840 l 93 972 l 608 972 l 608 840 l 422 840 l 422 132 l 608 132 l 608 0 l 93 0 m 186 1196 l 531 1196 l 531 1078 l 186 1078 "},"Į":{"ha":701,"x_min":0,"x_max":0,"o":"m 93 132 l 279 132 l 279 840 l 93 840 l 93 972 l 608 972 l 608 840 l 422 840 l 422 132 l 608 132 l 608 0 l 607 0 l 521 -112 b 504 -150 510 -125 504 -137 b 547 -192 504 -175 524 -192 b 585 -182 561 -192 574 -187 l 607 -272 b 515 -293 588 -283 553 -293 b 383 -172 449 -293 383 -251 b 421 -75 383 -132 396 -108 l 479 0 l 93 0 "},"Ĩ":{"ha":701,"x_min":0,"x_max":0,"o":"m 93 132 l 279 132 l 279 840 l 93 840 l 93 972 l 608 972 l 608 840 l 422 840 l 422 132 l 608 132 l 608 0 l 93 0 m 132 1079 b 260 1218 135 1167 189 1218 b 350 1189 294 1218 326 1203 l 385 1168 b 433 1149 401 1158 418 1149 b 483 1211 464 1149 483 1172 l 483 1221 l 572 1181 b 444 1042 569 1094 515 1042 b 357 1071 410 1042 383 1054 l 324 1092 b 272 1111 308 1101 293 1111 b 221 1047 242 1111 221 1086 l 221 1036 l 132 1079 "},"J":{"ha":811,"x_min":0,"x_max":0,"o":"m 357 -18 b 40 197 193 -18 81 83 l 156 268 b 357 118 188 171 269 118 b 569 319 496 118 569 213 l 569 840 l 217 840 l 217 972 l 711 972 l 711 319 b 357 -18 711 133 588 -18 "},"Ĵ":{"ha":811,"x_min":0,"x_max":0,"o":"m 357 -18 b 40 197 193 -18 81 83 l 156 268 b 357 118 188 171 269 118 b 569 319 496 118 569 213 l 569 840 l 217 840 l 217 972 l 711 972 l 711 319 b 357 -18 711 133 588 -18 m 361 1247 l 583 1247 l 674 1032 l 554 1032 l 472 1225 l 392 1032 l 271 1032 "},"K":{"ha":896,"x_min":0,"x_max":0,"o":"m 124 972 l 267 972 l 267 194 b 450 710 267 438 300 542 l 686 972 l 863 972 l 521 586 l 879 0 l 710 0 l 422 471 b 267 0 279 292 267 185 l 124 0 "},"Ķ":{"ha":896,"x_min":0,"x_max":0,"o":"m 124 972 l 267 972 l 267 194 b 450 710 267 438 300 542 l 686 972 l 863 972 l 521 586 l 879 0 l 710 0 l 422 471 b 267 0 279 292 267 185 l 124 0 m 401 -262 b 465 -196 438 -256 465 -242 l 465 -192 l 415 -192 l 415 -58 l 557 -58 l 557 -199 b 428 -340 557 -279 506 -329 l 401 -262 "},"L":{"ha":754,"x_min":0,"x_max":0,"o":"m 124 972 l 268 972 l 268 133 l 714 133 l 714 0 l 124 0 "},"Ĺ":{"ha":754,"x_min":0,"x_max":0,"o":"m 124 972 l 268 972 l 268 133 l 714 133 l 714 0 l 124 0 m 207 1247 l 347 1247 l 240 1032 l 135 1032 "},"Ľ":{"ha":804,"x_min":0,"x_max":0,"o":"m 124 972 l 268 972 l 268 133 l 714 133 l 714 0 l 124 0 m 522 972 l 646 972 l 613 708 l 500 708 "},"Ļ":{"ha":754,"x_min":0,"x_max":0,"o":"m 124 972 l 268 972 l 268 133 l 714 133 l 714 0 l 124 0 m 357 -262 b 421 -196 393 -256 421 -242 l 421 -192 l 371 -192 l 371 -58 l 513 -58 l 513 -199 b 383 -340 513 -279 461 -329 l 357 -262 "},"Ŀ":{"ha":754,"x_min":0,"x_max":0,"o":"m 124 972 l 268 972 l 268 133 l 714 133 l 714 0 l 124 0 m 468 631 l 640 631 l 640 443 l 468 443 "},"Ł":{"ha":792,"x_min":0,"x_max":0,"o":"m 89 463 l 189 510 l 189 972 l 333 972 l 333 578 l 604 706 l 604 567 l 333 438 l 333 133 l 779 133 l 779 0 l 189 0 l 189 368 l 89 321 "},"M":{"ha":1297,"x_min":0,"x_max":0,"o":"m 264 950 l 264 0 l 124 0 l 124 972 l 399 972 l 646 22 l 899 972 l 1174 972 l 1174 0 l 1035 0 l 1035 950 l 785 0 l 513 0 "},"N":{"ha":1039,"x_min":0,"x_max":0,"o":"m 124 972 l 400 972 l 775 22 l 775 972 l 915 972 l 915 0 l 635 0 l 265 950 l 265 0 l 124 0 "},"Ń":{"ha":1039,"x_min":0,"x_max":0,"o":"m 124 972 l 400 972 l 775 22 l 775 972 l 915 972 l 915 0 l 635 0 l 265 950 l 265 0 l 124 0 m 560 1247 l 700 1247 l 593 1032 l 488 1032 "},"Ň":{"ha":1039,"x_min":0,"x_max":0,"o":"m 124 972 l 400 972 l 775 22 l 775 972 l 915 972 l 915 0 l 635 0 l 265 950 l 265 0 l 124 0 m 471 1249 l 553 1056 l 633 1249 l 754 1249 l 664 1033 l 442 1033 l 351 1249 "},"Ņ":{"ha":1039,"x_min":0,"x_max":0,"o":"m 124 972 l 400 972 l 775 22 l 775 972 l 915 972 l 915 0 l 635 0 l 265 950 l 265 0 l 124 0 m 421 -262 b 485 -196 457 -256 485 -242 l 485 -192 l 435 -192 l 435 -58 l 576 -58 l 576 -199 b 447 -340 576 -279 525 -329 l 421 -262 "},"Ñ":{"ha":1039,"x_min":0,"x_max":0,"o":"m 124 972 l 400 972 l 775 22 l 775 972 l 915 972 l 915 0 l 635 0 l 265 950 l 265 0 l 124 0 m 326 1079 b 454 1218 329 1167 383 1218 b 544 1189 489 1218 521 1203 l 579 1168 b 628 1149 596 1158 613 1149 b 678 1211 658 1149 678 1172 l 678 1221 l 767 1181 b 639 1042 764 1094 710 1042 b 551 1071 604 1042 578 1054 l 518 1092 b 467 1111 503 1101 488 1111 b 415 1047 436 1111 415 1086 l 415 1036 l 326 1079 "},"Ŋ":{"ha":1039,"x_min":0,"x_max":0,"o":"m 639 -319 l 639 -197 l 657 -197 b 781 -72 739 -197 781 -147 l 781 0 l 635 0 l 265 950 l 265 0 l 124 0 l 124 972 l 400 972 l 775 22 l 775 972 l 915 972 l 915 -74 b 656 -319 915 -224 804 -319 "},"O":{"ha":1132,"x_min":0,"x_max":0,"o":"m 564 -18 b 61 486 276 -18 61 199 b 565 990 61 771 278 990 b 1071 486 854 990 1071 768 b 564 -18 1071 201 854 -18 m 208 486 b 565 118 208 269 367 118 b 922 486 764 118 922 269 b 565 854 922 700 764 854 b 208 486 367 854 208 700 "},"Ó":{"ha":1132,"x_min":0,"x_max":0,"o":"m 564 -18 b 61 486 276 -18 61 199 b 565 990 61 771 278 990 b 1071 486 854 990 1071 768 b 564 -18 1071 201 854 -18 m 208 486 b 565 118 208 269 367 118 b 922 486 764 118 922 269 b 565 854 922 700 764 854 b 208 486 367 854 208 700 m 578 1247 l 718 1247 l 611 1032 l 506 1032 "},"Ŏ":{"ha":1132,"x_min":0,"x_max":0,"o":"m 564 -18 b 61 486 276 -18 61 199 b 565 990 61 771 278 990 b 1071 486 854 990 1071 768 b 564 -18 1071 201 854 -18 m 208 486 b 565 118 208 269 367 118 b 922 486 764 118 922 269 b 565 854 922 700 764 854 b 208 486 367 854 208 700 m 381 1240 l 483 1240 l 483 1224 b 572 1140 483 1178 511 1140 b 660 1224 631 1140 660 1178 l 660 1240 l 763 1240 l 763 1221 b 572 1040 763 1111 688 1040 b 381 1221 456 1040 381 1111 "},"Ǒ":{"ha":1132,"x_min":0,"x_max":0,"o":"m 564 -18 b 61 486 276 -18 61 199 b 565 990 61 771 278 990 b 1071 486 854 990 1071 768 b 564 -18 1071 201 854 -18 m 208 486 b 565 118 208 269 367 118 b 922 486 764 118 922 269 b 565 854 922 700 764 854 b 208 486 367 854 208 700 m 489 1249 l 571 1056 l 651 1249 l 772 1249 l 682 1033 l 460 1033 l 369 1249 "},"Ô":{"ha":1132,"x_min":0,"x_max":0,"o":"m 564 -18 b 61 486 276 -18 61 199 b 565 990 61 771 278 990 b 1071 486 854 990 1071 768 b 564 -18 1071 201 854 -18 m 208 486 b 565 118 208 269 367 118 b 922 486 764 118 922 269 b 565 854 922 700 764 854 b 208 486 367 854 208 700 m 458 1247 l 681 1247 l 771 1032 l 651 1032 l 569 1225 l 489 1032 l 368 1032 "},"Ö":{"ha":1132,"x_min":0,"x_max":0,"o":"m 564 -18 b 61 486 276 -18 61 199 b 565 990 61 771 278 990 b 1071 486 854 990 1071 768 b 564 -18 1071 201 854 -18 m 208 486 b 565 118 208 269 367 118 b 922 486 764 118 922 269 b 565 854 922 700 764 854 b 208 486 367 854 208 700 m 371 1235 l 517 1235 l 517 1079 l 371 1079 m 618 1235 l 764 1235 l 764 1079 l 618 1079 "},"Ò":{"ha":1132,"x_min":0,"x_max":0,"o":"m 564 -18 b 61 486 276 -18 61 199 b 565 990 61 771 278 990 b 1071 486 854 990 1071 768 b 564 -18 1071 201 854 -18 m 208 486 b 565 118 208 269 367 118 b 922 486 764 118 922 269 b 565 854 922 700 764 854 b 208 486 367 854 208 700 m 568 1247 l 640 1032 l 535 1032 l 428 1247 "},"Ő":{"ha":1132,"x_min":0,"x_max":0,"o":"m 564 -18 b 61 486 276 -18 61 199 b 565 990 61 771 278 990 b 1071 486 854 990 1071 768 b 564 -18 1071 201 854 -18 m 208 486 b 565 118 208 269 367 118 b 922 486 764 118 922 269 b 565 854 922 700 764 854 b 208 486 367 854 208 700 m 483 1257 l 619 1257 l 508 1032 l 406 1032 m 690 1257 l 826 1257 l 715 1032 l 613 1032 "},"Ō":{"ha":1132,"x_min":0,"x_max":0,"o":"m 564 -18 b 61 486 276 -18 61 199 b 565 990 61 771 278 990 b 1071 486 854 990 1071 768 b 564 -18 1071 201 854 -18 m 208 486 b 565 118 208 269 367 118 b 922 486 764 118 922 269 b 565 854 922 700 764 854 b 208 486 367 854 208 700 m 399 1196 l 743 1196 l 743 1078 l 399 1078 "},"Ø":{"ha":1132,"x_min":0,"x_max":0,"o":"m 132 -69 l 238 96 b 61 486 128 188 61 325 b 565 990 61 771 278 990 b 781 944 643 990 717 974 l 833 1026 l 990 1026 l 893 875 b 1071 486 1003 783 1071 643 b 564 -18 1071 201 854 -18 b 349 26 486 -18 414 -3 l 288 -69 m 208 486 b 315 218 208 376 249 283 l 706 826 b 565 854 663 844 615 854 b 208 486 367 854 208 700 m 425 146 b 565 118 468 128 515 118 b 922 486 764 118 922 269 b 815 753 922 594 882 688 l 425 146 "},"Õ":{"ha":1132,"x_min":0,"x_max":0,"o":"m 564 -18 b 61 486 276 -18 61 199 b 565 990 61 771 278 990 b 1071 486 854 990 1071 768 b 564 -18 1071 201 854 -18 m 208 486 b 565 118 208 269 367 118 b 922 486 764 118 922 269 b 565 854 922 700 764 854 b 208 486 367 854 208 700 m 344 1079 b 472 1218 347 1167 401 1218 b 563 1189 507 1218 539 1203 l 597 1168 b 646 1149 614 1158 631 1149 b 696 1211 676 1149 696 1172 l 696 1221 l 785 1181 b 657 1042 782 1094 728 1042 b 569 1071 622 1042 596 1054 l 536 1092 b 485 1111 521 1101 506 1111 b 433 1047 454 1111 433 1086 l 433 1036 l 344 1079 "},"Œ":{"ha":1524,"x_min":0,"x_max":0,"o":"m 564 -18 b 61 486 276 -18 61 199 b 565 990 61 771 278 990 b 704 972 614 990 660 983 l 1438 972 l 1438 840 l 931 840 b 1065 560 1003 767 1051 669 l 1390 560 l 1390 431 l 1068 431 b 929 131 1056 313 1006 208 l 1453 131 l 1453 0 l 704 0 b 564 -18 660 -11 613 -18 m 208 486 b 565 118 208 269 367 118 b 922 486 764 118 922 269 b 565 854 922 700 764 854 b 208 486 367 854 208 700 "},"P":{"ha":840,"x_min":0,"x_max":0,"o":"m 124 972 l 488 972 b 800 672 669 972 800 849 b 488 365 800 497 667 365 l 267 365 l 267 0 l 124 0 m 476 497 b 654 672 581 497 654 571 b 476 842 654 771 581 842 l 267 842 l 267 497 "},"Þ":{"ha":840,"x_min":0,"x_max":0,"o":"m 124 972 l 267 972 l 267 839 l 488 839 b 800 539 669 839 800 717 b 488 233 800 365 667 233 l 267 233 l 267 0 l 124 0 m 476 364 b 654 539 581 364 654 439 b 476 710 654 639 581 710 l 267 710 l 267 364 "},"Q":{"ha":1113,"x_min":0,"x_max":0,"o":"m 604 -1 b 61 494 247 -1 61 243 b 558 990 61 781 275 990 b 1051 526 850 990 1051 781 b 660 135 1051 256 831 135 l 1035 135 l 1033 -1 l 604 -1 m 208 494 b 567 135 208 281 368 135 b 908 501 765 135 908 286 b 558 854 908 706 760 854 b 208 494 360 854 208 706 "},"R":{"ha":910,"x_min":0,"x_max":0,"o":"m 124 972 l 514 972 b 814 724 707 972 814 858 b 550 497 814 607 735 493 b 806 258 717 492 806 399 l 806 0 l 660 0 l 660 228 b 503 369 660 315 608 369 l 267 369 l 267 0 l 124 0 m 489 501 b 667 674 590 501 667 572 b 483 840 667 767 606 840 l 267 840 l 267 501 "},"Ŕ":{"ha":910,"x_min":0,"x_max":0,"o":"m 124 972 l 514 972 b 814 724 707 972 814 858 b 550 497 814 607 735 493 b 806 258 717 492 806 399 l 806 0 l 660 0 l 660 228 b 503 369 660 315 608 369 l 267 369 l 267 0 l 124 0 m 489 501 b 667 674 590 501 667 572 b 483 840 667 767 606 840 l 267 840 l 267 501 m 447 1247 l 588 1247 l 481 1032 l 375 1032 "},"Ř":{"ha":910,"x_min":0,"x_max":0,"o":"m 124 972 l 514 972 b 814 724 707 972 814 858 b 550 497 814 607 735 493 b 806 258 717 492 806 399 l 806 0 l 660 0 l 660 228 b 503 369 660 315 608 369 l 267 369 l 267 0 l 124 0 m 358 1249 l 440 1056 l 521 1249 l 642 1249 l 551 1033 l 329 1033 l 239 1249 m 489 501 b 667 674 590 501 667 572 b 483 840 667 767 606 840 l 267 840 l 267 501 "},"Ŗ":{"ha":910,"x_min":0,"x_max":0,"o":"m 124 972 l 514 972 b 814 724 707 972 814 858 b 550 497 814 607 735 493 b 806 258 717 492 806 399 l 806 0 l 660 0 l 660 228 b 503 369 660 315 608 369 l 267 369 l 267 0 l 124 0 m 489 501 b 667 674 590 501 667 572 b 483 840 667 767 606 840 l 267 840 l 267 501 m 383 -262 b 447 -196 419 -256 447 -242 l 447 -192 l 397 -192 l 397 -58 l 539 -58 l 539 -199 b 410 -340 539 -279 488 -329 l 383 -262 "},"S":{"ha":883,"x_min":0,"x_max":0,"o":"m 447 -18 b 78 242 257 -18 118 76 l 211 282 b 447 115 236 176 319 115 b 657 269 579 115 657 183 b 510 419 657 353 599 399 l 365 454 b 119 722 238 483 119 556 b 447 990 119 869 243 990 b 782 757 626 990 751 900 l 651 718 b 447 861 632 800 558 861 b 261 722 321 861 261 793 b 400 589 261 640 325 606 l 544 553 b 803 269 693 517 803 429 b 447 -18 803 117 674 -18 "},"Ś":{"ha":883,"x_min":0,"x_max":0,"o":"m 447 -18 b 78 242 257 -18 118 76 l 211 282 b 447 115 236 176 319 115 b 657 269 579 115 657 183 b 510 419 657 353 599 399 l 365 454 b 119 722 238 483 119 556 b 447 990 119 869 243 990 b 782 757 626 990 751 900 l 651 718 b 447 861 632 800 558 861 b 261 722 321 861 261 793 b 400 589 261 640 325 606 l 544 553 b 803 269 693 517 803 429 b 447 -18 803 117 674 -18 m 467 1247 l 607 1247 l 500 1032 l 394 1032 "},"Š":{"ha":883,"x_min":0,"x_max":0,"o":"m 447 -18 b 78 242 257 -18 118 76 l 211 282 b 447 115 236 176 319 115 b 657 269 579 115 657 183 b 510 419 657 353 599 399 l 365 454 b 119 722 238 483 119 556 b 447 990 119 869 243 990 b 782 757 626 990 751 900 l 651 718 b 447 861 632 800 558 861 b 261 722 321 861 261 793 b 400 589 261 640 325 606 l 544 553 b 803 269 693 517 803 429 b 447 -18 803 117 674 -18 m 378 1249 l 460 1056 l 540 1249 l 661 1249 l 571 1033 l 349 1033 l 258 1249 "},"Ş":{"ha":883,"x_min":0,"x_max":0,"o":"m 468 -293 b 360 -229 422 -293 379 -269 l 425 -189 b 467 -214 433 -206 449 -214 b 514 -167 490 -214 514 -196 b 467 -121 514 -139 490 -121 b 425 -144 449 -121 433 -131 l 353 -101 l 381 -14 b 78 242 225 6 114 96 l 211 282 b 447 115 236 176 319 115 b 657 269 579 115 657 183 b 510 419 657 353 599 399 l 365 454 b 119 722 238 483 119 556 b 447 990 119 869 243 990 b 782 757 626 990 751 900 l 651 718 b 447 861 632 800 558 861 b 261 722 321 861 261 793 b 400 589 261 640 325 606 l 544 553 b 803 269 693 517 803 429 b 469 -18 803 122 682 -10 l 432 -122 b 507 -65 447 -79 478 -65 b 600 -168 556 -65 600 -108 b 468 -293 600 -242 546 -293 "},"Ŝ":{"ha":883,"x_min":0,"x_max":0,"o":"m 447 -18 b 78 242 257 -18 118 76 l 211 282 b 447 115 236 176 319 115 b 657 269 579 115 657 183 b 510 419 657 353 599 399 l 365 454 b 119 722 238 483 119 556 b 447 990 119 869 243 990 b 782 757 626 990 751 900 l 651 718 b 447 861 632 800 558 861 b 261 722 321 861 261 793 b 400 589 261 640 325 606 l 544 553 b 803 269 693 517 803 429 b 447 -18 803 117 674 -18 m 347 1247 l 569 1247 l 660 1032 l 540 1032 l 458 1225 l 378 1032 l 257 1032 "},"Ș":{"ha":883,"x_min":0,"x_max":0,"o":"m 447 -18 b 78 242 257 -18 118 76 l 211 282 b 447 115 236 176 319 115 b 657 269 579 115 657 183 b 510 419 657 353 599 399 l 365 454 b 119 722 238 483 119 556 b 447 990 119 869 243 990 b 782 757 626 990 751 900 l 651 718 b 447 861 632 800 558 861 b 261 722 321 861 261 793 b 400 589 261 640 325 606 l 544 553 b 803 269 693 517 803 429 b 447 -18 803 117 674 -18 m 346 -262 b 410 -196 382 -256 410 -242 l 410 -192 l 360 -192 l 360 -58 l 501 -58 l 501 -199 b 372 -340 501 -279 450 -329 l 346 -262 "},"ẞ":{"ha":1008,"x_min":0,"x_max":0,"o":"m 611 -17 b 351 110 501 -17 411 24 l 449 197 b 611 115 489 138 549 115 b 786 279 719 115 786 192 b 624 431 786 365 721 431 l 449 431 l 449 685 l 811 839 l 446 839 b 264 671 324 839 264 764 l 264 0 l 124 0 l 124 668 b 446 972 124 836 233 972 l 833 972 l 833 711 l 471 554 l 636 554 b 929 283 815 554 929 432 b 611 -17 929 126 817 -17 "},"T":{"ha":868,"x_min":0,"x_max":0,"o":"m 361 839 l 51 839 l 51 972 l 817 972 l 817 839 l 506 839 l 506 0 l 361 0 "},"Ŧ":{"ha":868,"x_min":0,"x_max":0,"o":"m 151 604 l 361 604 l 361 839 l 51 839 l 51 972 l 817 972 l 817 839 l 506 839 l 506 604 l 713 604 l 713 482 l 506 482 l 506 0 l 361 0 l 361 482 l 151 482 "},"Ť":{"ha":868,"x_min":0,"x_max":0,"o":"m 361 839 l 51 839 l 51 972 l 817 972 l 817 839 l 506 839 l 506 0 l 361 0 m 360 1275 l 442 1082 l 522 1275 l 643 1275 l 553 1060 l 331 1060 l 240 1275 "},"Ţ":{"ha":868,"x_min":0,"x_max":0,"o":"m 361 839 l 51 839 l 51 972 l 817 972 l 817 839 l 506 839 l 506 0 l 478 0 l 435 -122 b 510 -65 450 -79 481 -65 b 603 -168 558 -65 603 -108 b 471 -293 603 -242 549 -293 b 363 -229 425 -293 382 -269 l 428 -189 b 469 -214 436 -206 451 -214 b 517 -167 493 -214 517 -196 b 469 -121 517 -139 493 -121 b 428 -144 451 -121 436 -131 l 356 -101 l 389 0 l 361 0 "},"Ț":{"ha":868,"x_min":0,"x_max":0,"o":"m 361 839 l 51 839 l 51 972 l 817 972 l 817 839 l 506 839 l 506 0 l 361 0 m 347 -262 b 411 -196 383 -256 411 -242 l 411 -192 l 361 -192 l 361 -58 l 503 -58 l 503 -199 b 374 -340 503 -279 451 -329 l 347 -262 "},"U":{"ha":965,"x_min":0,"x_max":0,"o":"m 488 -18 b 110 346 260 -18 110 135 l 110 972 l 254 972 l 254 347 b 488 115 254 203 342 115 b 722 347 629 115 722 203 l 722 972 l 865 972 l 865 346 b 488 -18 865 136 714 -18 "},"Ú":{"ha":965,"x_min":0,"x_max":0,"o":"m 488 -18 b 110 346 260 -18 110 135 l 110 972 l 254 972 l 254 347 b 488 115 254 203 342 115 b 722 347 629 115 722 203 l 722 972 l 865 972 l 865 346 b 488 -18 865 136 714 -18 m 490 1247 l 631 1247 l 524 1032 l 418 1032 "},"Ŭ":{"ha":965,"x_min":0,"x_max":0,"o":"m 488 -18 b 110 346 260 -18 110 135 l 110 972 l 254 972 l 254 347 b 488 115 254 203 342 115 b 722 347 629 115 722 203 l 722 972 l 865 972 l 865 346 b 488 -18 865 136 714 -18 m 292 1240 l 394 1240 l 394 1224 b 483 1140 394 1178 422 1140 b 571 1224 542 1140 571 1178 l 571 1240 l 674 1240 l 674 1221 b 483 1040 674 1111 599 1040 b 292 1221 367 1040 292 1111 "},"Û":{"ha":965,"x_min":0,"x_max":0,"o":"m 488 -18 b 110 346 260 -18 110 135 l 110 972 l 254 972 l 254 347 b 488 115 254 203 342 115 b 722 347 629 115 722 203 l 722 972 l 865 972 l 865 346 b 488 -18 865 136 714 -18 m 371 1247 l 593 1247 l 683 1032 l 564 1032 l 482 1225 l 401 1032 l 281 1032 "},"Ü":{"ha":965,"x_min":0,"x_max":0,"o":"m 488 -18 b 110 346 260 -18 110 135 l 110 972 l 254 972 l 254 347 b 488 115 254 203 342 115 b 722 347 629 115 722 203 l 722 972 l 865 972 l 865 346 b 488 -18 865 136 714 -18 m 283 1235 l 429 1235 l 429 1079 l 283 1079 m 531 1235 l 676 1235 l 676 1079 l 531 1079 "},"Ù":{"ha":965,"x_min":0,"x_max":0,"o":"m 488 -18 b 110 346 260 -18 110 135 l 110 972 l 254 972 l 254 347 b 488 115 254 203 342 115 b 722 347 629 115 722 203 l 722 972 l 865 972 l 865 346 b 488 -18 865 136 714 -18 m 479 1247 l 551 1032 l 446 1032 l 339 1247 "},"Ű":{"ha":965,"x_min":0,"x_max":0,"o":"m 488 -18 b 110 346 260 -18 110 135 l 110 972 l 254 972 l 254 347 b 488 115 254 203 342 115 b 722 347 629 115 722 203 l 722 972 l 865 972 l 865 346 b 488 -18 865 136 714 -18 m 396 1257 l 532 1257 l 421 1032 l 318 1032 m 603 1257 l 739 1257 l 628 1032 l 525 1032 "},"Ū":{"ha":965,"x_min":0,"x_max":0,"o":"m 488 -18 b 110 346 260 -18 110 135 l 110 972 l 254 972 l 254 347 b 488 115 254 203 342 115 b 722 347 629 115 722 203 l 722 972 l 865 972 l 865 346 b 488 -18 865 136 714 -18 m 311 1196 l 656 1196 l 656 1078 l 311 1078 "},"Ų":{"ha":965,"x_min":0,"x_max":0,"o":"m 488 -18 b 110 346 260 -18 110 135 l 110 972 l 254 972 l 254 347 b 488 115 254 203 342 115 b 722 347 629 115 722 203 l 722 972 l 865 972 l 865 346 b 786 111 865 254 836 174 l 613 -112 b 596 -150 603 -125 596 -137 b 639 -192 596 -175 615 -192 b 676 -182 654 -192 665 -187 l 700 -272 b 607 -293 681 -283 644 -293 b 475 -172 540 -293 475 -251 b 513 -75 475 -132 488 -108 l 563 -11 b 488 -18 538 -15 514 -18 "},"Ů":{"ha":965,"x_min":0,"x_max":0,"o":"m 488 -18 b 110 346 260 -18 110 135 l 110 972 l 254 972 l 254 347 b 488 115 254 203 342 115 b 722 347 629 115 722 203 l 722 972 l 865 972 l 865 346 b 488 -18 865 136 714 -18 m 336 1158 b 482 1301 336 1242 399 1301 b 632 1160 571 1301 632 1242 b 483 1017 632 1078 569 1017 b 336 1158 399 1017 336 1078 m 424 1158 b 483 1097 424 1125 447 1097 b 544 1160 521 1097 544 1125 b 482 1221 544 1193 521 1221 b 424 1158 447 1221 424 1193 "},"Ũ":{"ha":965,"x_min":0,"x_max":0,"o":"m 488 -18 b 110 346 260 -18 110 135 l 110 972 l 254 972 l 254 347 b 488 115 254 203 342 115 b 722 347 629 115 722 203 l 722 972 l 865 972 l 865 346 b 488 -18 865 136 714 -18 m 257 1079 b 385 1218 260 1167 314 1218 b 475 1189 419 1218 451 1203 l 510 1168 b 558 1149 526 1158 543 1149 b 608 1211 589 1149 608 1172 l 608 1221 l 697 1181 b 569 1042 694 1094 640 1042 b 482 1071 535 1042 508 1054 l 449 1092 b 397 1111 433 1101 418 1111 b 346 1047 367 1111 346 1086 l 346 1036 l 257 1079 "},"V":{"ha":958,"x_min":0,"x_max":0,"o":"m 33 972 l 190 972 l 479 22 l 768 972 l 925 972 l 618 0 l 342 0 "},"W":{"ha":1344,"x_min":0,"x_max":0,"o":"m 33 972 l 189 972 l 367 22 l 535 972 l 810 972 l 979 22 l 1157 972 l 1311 972 l 1113 0 l 840 0 l 674 950 l 504 0 l 232 0 "},"Ẃ":{"ha":1344,"x_min":0,"x_max":0,"o":"m 33 972 l 189 972 l 367 22 l 535 972 l 810 972 l 979 22 l 1157 972 l 1311 972 l 1113 0 l 840 0 l 674 950 l 504 0 l 232 0 m 682 1247 l 822 1247 l 715 1032 l 610 1032 "},"Ŵ":{"ha":1344,"x_min":0,"x_max":0,"o":"m 33 972 l 189 972 l 367 22 l 535 972 l 810 972 l 979 22 l 1157 972 l 1311 972 l 1113 0 l 840 0 l 674 950 l 504 0 l 232 0 m 563 1247 l 785 1247 l 875 1032 l 756 1032 l 674 1225 l 593 1032 l 472 1032 "},"Ẅ":{"ha":1344,"x_min":0,"x_max":0,"o":"m 33 972 l 189 972 l 367 22 l 535 972 l 810 972 l 979 22 l 1157 972 l 1311 972 l 1113 0 l 840 0 l 674 950 l 504 0 l 232 0 m 475 1235 l 621 1235 l 621 1079 l 475 1079 m 722 1235 l 868 1235 l 868 1079 l 722 1079 "},"Ẁ":{"ha":1344,"x_min":0,"x_max":0,"o":"m 33 972 l 189 972 l 367 22 l 535 972 l 810 972 l 979 22 l 1157 972 l 1311 972 l 1113 0 l 840 0 l 674 950 l 504 0 l 232 0 m 671 1247 l 743 1032 l 638 1032 l 531 1247 "},"X":{"ha":882,"x_min":0,"x_max":0,"o":"m 299 496 l 31 972 l 186 972 l 442 508 l 697 972 l 854 972 l 588 496 l 863 0 l 706 0 l 442 488 l 175 0 l 19 0 "},"Y":{"ha":925,"x_min":0,"x_max":0,"o":"m 390 383 l 328 383 l 33 972 l 188 972 l 464 406 l 732 972 l 892 972 l 594 383 l 535 383 l 535 0 l 390 0 "},"Ý":{"ha":925,"x_min":0,"x_max":0,"o":"m 390 383 l 328 383 l 33 972 l 188 972 l 464 406 l 732 972 l 892 972 l 594 383 l 535 383 l 535 0 l 390 0 m 469 1247 l 610 1247 l 503 1032 l 397 1032 "},"Ŷ":{"ha":925,"x_min":0,"x_max":0,"o":"m 390 383 l 328 383 l 33 972 l 188 972 l 464 406 l 732 972 l 892 972 l 594 383 l 535 383 l 535 0 l 390 0 m 350 1247 l 572 1247 l 663 1032 l 543 1032 l 461 1225 l 381 1032 l 260 1032 "},"Ÿ":{"ha":925,"x_min":0,"x_max":0,"o":"m 390 383 l 328 383 l 33 972 l 188 972 l 464 406 l 732 972 l 892 972 l 594 383 l 535 383 l 535 0 l 390 0 m 263 1235 l 408 1235 l 408 1079 l 263 1079 m 510 1235 l 656 1235 l 656 1079 l 510 1079 "},"Ỳ":{"ha":925,"x_min":0,"x_max":0,"o":"m 390 383 l 328 383 l 33 972 l 188 972 l 464 406 l 732 972 l 892 972 l 594 383 l 535 383 l 535 0 l 390 0 m 458 1247 l 531 1032 l 425 1032 l 318 1247 "},"Z":{"ha":943,"x_min":0,"x_max":0,"o":"m 96 289 l 822 835 l 114 835 l 114 972 l 844 972 l 844 683 l 118 138 l 847 138 l 847 0 l 96 0 "},"Ź":{"ha":943,"x_min":0,"x_max":0,"o":"m 96 289 l 822 835 l 114 835 l 114 972 l 844 972 l 844 683 l 118 138 l 847 138 l 847 0 l 96 0 m 482 1247 l 622 1247 l 515 1032 l 410 1032 "},"Ž":{"ha":943,"x_min":0,"x_max":0,"o":"m 96 289 l 822 835 l 114 835 l 114 972 l 844 972 l 844 683 l 118 138 l 847 138 l 847 0 l 96 0 m 393 1249 l 475 1056 l 556 1249 l 676 1249 l 586 1033 l 364 1033 l 274 1249 "},"Ż":{"ha":943,"x_min":0,"x_max":0,"o":"m 96 289 l 822 835 l 114 835 l 114 972 l 844 972 l 844 683 l 118 138 l 847 138 l 847 0 l 96 0 m 404 1236 l 549 1236 l 549 1072 l 404 1072 "},"a":{"ha":775,"x_min":0,"x_max":0,"o":"m 313 -18 b 68 208 169 -18 68 75 b 304 433 68 342 167 419 l 547 458 b 378 610 546 543 485 610 b 219 490 279 610 232 547 l 96 526 b 378 732 128 651 231 732 b 683 450 586 732 683 593 l 683 0 l 546 0 l 546 219 b 313 -18 546 68 449 -18 m 207 208 b 342 97 207 140 265 97 b 547 306 489 97 547 204 l 547 344 l 335 322 b 207 208 250 313 207 274 "},"á":{"ha":775,"x_min":0,"x_max":0,"o":"m 313 -18 b 68 208 169 -18 68 75 b 304 433 68 342 167 419 l 547 458 b 378 610 546 543 485 610 b 219 490 279 610 232 547 l 96 526 b 378 732 128 651 231 732 b 683 450 586 732 683 593 l 683 0 l 546 0 l 546 219 b 313 -18 546 68 449 -18 m 207 208 b 342 97 207 140 265 97 b 547 306 489 97 547 204 l 547 344 l 335 322 b 207 208 250 313 207 274 m 394 1017 l 535 1017 l 428 801 l 322 801 "},"ă":{"ha":775,"x_min":0,"x_max":0,"o":"m 313 -18 b 68 208 169 -18 68 75 b 304 433 68 342 167 419 l 547 458 b 378 610 546 543 485 610 b 219 490 279 610 232 547 l 96 526 b 378 732 128 651 231 732 b 683 450 586 732 683 593 l 683 0 l 546 0 l 546 219 b 313 -18 546 68 449 -18 m 196 1010 l 299 1010 l 299 993 b 388 910 299 947 326 910 b 475 993 446 910 475 947 l 475 1010 l 578 1010 l 578 990 b 388 810 578 881 503 810 b 196 990 271 810 196 881 m 207 208 b 342 97 207 140 265 97 b 547 306 489 97 547 204 l 547 344 l 335 322 b 207 208 250 313 207 274 "},"ǎ":{"ha":775,"x_min":0,"x_max":0,"o":"m 313 -18 b 68 208 169 -18 68 75 b 304 433 68 342 167 419 l 547 458 b 378 610 546 543 485 610 b 219 490 279 610 232 547 l 96 526 b 378 732 128 651 231 732 b 683 450 586 732 683 593 l 683 0 l 546 0 l 546 219 b 313 -18 546 68 449 -18 m 306 1017 l 388 824 l 468 1017 l 589 1017 l 499 801 l 276 801 l 186 1017 m 207 208 b 342 97 207 140 265 97 b 547 306 489 97 547 204 l 547 344 l 335 322 b 207 208 250 313 207 274 "},"â":{"ha":775,"x_min":0,"x_max":0,"o":"m 313 -18 b 68 208 169 -18 68 75 b 304 433 68 342 167 419 l 547 458 b 378 610 546 543 485 610 b 219 490 279 610 232 547 l 96 526 b 378 732 128 651 231 732 b 683 450 586 732 683 593 l 683 0 l 546 0 l 546 219 b 313 -18 546 68 449 -18 m 275 1017 l 497 1017 l 588 801 l 468 801 l 386 994 l 306 801 l 185 801 m 207 208 b 342 97 207 140 265 97 b 547 306 489 97 547 204 l 547 344 l 335 322 b 207 208 250 313 207 274 "},"ä":{"ha":775,"x_min":0,"x_max":0,"o":"m 313 -18 b 68 208 169 -18 68 75 b 304 433 68 342 167 419 l 547 458 b 378 610 546 543 485 610 b 219 490 279 610 232 547 l 96 526 b 378 732 128 651 231 732 b 683 450 586 732 683 593 l 683 0 l 546 0 l 546 219 b 313 -18 546 68 449 -18 m 186 1004 l 332 1004 l 332 849 l 186 849 m 207 208 b 342 97 207 140 265 97 b 547 306 489 97 547 204 l 547 344 l 335 322 b 207 208 250 313 207 274 m 433 1004 l 579 1004 l 579 849 l 433 849 "},"à":{"ha":775,"x_min":0,"x_max":0,"o":"m 313 -18 b 68 208 169 -18 68 75 b 304 433 68 342 167 419 l 547 458 b 378 610 546 543 485 610 b 219 490 279 610 232 547 l 96 526 b 378 732 128 651 231 732 b 683 450 586 732 683 593 l 683 0 l 546 0 l 546 219 b 313 -18 546 68 449 -18 m 207 208 b 342 97 207 140 265 97 b 547 306 489 97 547 204 l 547 344 l 335 322 b 207 208 250 313 207 274 m 383 1017 l 456 801 l 350 801 l 243 1017 "},"ā":{"ha":775,"x_min":0,"x_max":0,"o":"m 313 -18 b 68 208 169 -18 68 75 b 304 433 68 342 167 419 l 547 458 b 378 610 546 543 485 610 b 219 490 279 610 232 547 l 96 526 b 378 732 128 651 231 732 b 683 450 586 732 683 593 l 683 0 l 546 0 l 546 219 b 313 -18 546 68 449 -18 m 207 208 b 342 97 207 140 265 97 b 547 306 489 97 547 204 l 547 344 l 335 322 b 207 208 250 313 207 274 m 215 965 l 560 965 l 560 847 l 215 847 "},"ą":{"ha":775,"x_min":0,"x_max":0,"o":"m 313 -18 b 68 208 169 -18 68 75 b 304 433 68 342 167 419 l 547 458 b 378 610 546 543 485 610 b 219 490 279 610 232 547 l 96 526 b 378 732 128 651 231 732 b 683 450 586 732 683 593 l 683 0 l 597 -112 b 581 -150 586 -125 581 -137 b 624 -192 581 -175 600 -192 b 661 -182 638 -192 650 -187 l 683 -272 b 592 -293 664 -283 629 -293 b 460 -172 525 -293 460 -251 b 497 -75 460 -132 472 -108 l 556 0 l 546 0 l 546 219 b 313 -18 546 68 449 -18 m 207 208 b 342 97 207 140 265 97 b 547 306 489 97 547 204 l 547 344 l 335 322 b 207 208 250 313 207 274 "},"å":{"ha":775,"x_min":0,"x_max":0,"o":"m 313 -18 b 68 208 169 -18 68 75 b 304 433 68 342 167 419 l 547 458 b 378 610 546 543 485 610 b 219 490 279 610 232 547 l 96 526 b 378 732 128 651 231 732 b 683 450 586 732 683 593 l 683 0 l 546 0 l 546 219 b 313 -18 546 68 449 -18 m 207 208 b 342 97 207 140 265 97 b 547 306 489 97 547 204 l 547 344 l 335 322 b 207 208 250 313 207 274 m 239 928 b 385 1071 239 1011 301 1071 b 535 929 474 1071 535 1011 b 386 786 535 847 472 786 b 239 928 301 786 239 847 m 326 928 b 386 867 326 894 350 867 b 447 929 424 867 447 894 b 385 990 447 963 424 990 b 326 928 350 990 326 963 "},"ã":{"ha":775,"x_min":0,"x_max":0,"o":"m 313 -18 b 68 208 169 -18 68 75 b 304 433 68 342 167 419 l 547 458 b 378 610 546 543 485 610 b 219 490 279 610 232 547 l 96 526 b 378 732 128 651 231 732 b 683 450 586 732 683 593 l 683 0 l 546 0 l 546 219 b 313 -18 546 68 449 -18 m 161 849 b 289 988 164 936 218 988 b 379 958 324 988 356 972 l 414 938 b 463 918 431 928 447 918 b 513 981 493 918 513 942 l 513 990 l 601 950 b 474 811 599 864 544 811 b 386 840 439 811 413 824 l 353 861 b 301 881 338 871 322 881 b 250 817 271 881 250 856 l 250 806 l 161 849 m 207 208 b 342 97 207 140 265 97 b 547 306 489 97 547 204 l 547 344 l 335 322 b 207 208 250 313 207 274 "},"æ":{"ha":1176,"x_min":0,"x_max":0,"o":"m 831 -18 b 567 246 692 -18 567 83 b 307 -18 565 50 447 -18 b 68 208 179 -18 68 78 b 329 431 68 342 172 431 l 553 431 l 553 442 b 378 610 553 538 485 610 b 222 490 279 610 233 547 l 99 525 b 351 732 122 647 218 732 b 568 472 482 732 576 643 b 836 732 581 621 685 732 b 1128 378 1032 732 1138 560 l 1126 318 l 578 318 b 800 104 586 185 672 104 b 993 210 886 104 953 144 l 1096 143 b 831 -18 1044 49 953 -18 m 208 210 b 350 99 208 138 272 99 b 553 306 496 99 553 204 l 553 318 l 344 318 b 208 210 260 318 208 275 m 993 431 b 792 614 992 532 913 614 b 578 431 674 614 593 531 "},"b":{"ha":878,"x_min":0,"x_max":0,"o":"m 518 -18 b 242 257 357 -18 265 99 l 242 0 l 103 0 l 103 972 l 242 972 l 242 468 b 518 732 265 632 379 732 b 831 356 703 732 831 575 b 518 -18 831 142 700 -18 m 236 356 b 461 108 236 217 328 108 b 689 356 590 108 689 204 b 464 606 689 504 590 606 b 236 356 339 606 236 514 "},"c":{"ha":807,"x_min":0,"x_max":0,"o":"m 419 -18 b 47 357 203 -18 47 142 b 419 732 47 572 206 732 b 750 519 567 732 693 660 l 631 457 b 419 604 606 535 526 604 b 189 357 286 604 189 501 b 419 110 189 207 290 110 b 642 265 517 110 606 161 l 760 210 b 419 -18 704 54 571 -18 "},"ć":{"ha":807,"x_min":0,"x_max":0,"o":"m 419 -18 b 47 357 203 -18 47 142 b 419 732 47 572 206 732 b 750 519 567 732 693 660 l 631 457 b 419 604 606 535 526 604 b 189 357 286 604 189 501 b 419 110 189 207 290 110 b 642 265 517 110 606 161 l 760 210 b 419 -18 704 54 571 -18 m 428 1015 l 568 1015 l 461 800 l 356 800 "},"č":{"ha":807,"x_min":0,"x_max":0,"o":"m 419 -18 b 47 357 203 -18 47 142 b 419 732 47 572 206 732 b 750 519 567 732 693 660 l 631 457 b 419 604 606 535 526 604 b 189 357 286 604 189 501 b 419 110 189 207 290 110 b 642 265 517 110 606 161 l 760 210 b 419 -18 704 54 571 -18 m 339 1015 l 421 822 l 501 1015 l 622 1015 l 532 800 l 310 800 l 219 1015 "},"ç":{"ha":807,"x_min":0,"x_max":0,"o":"m 432 -293 b 324 -229 386 -293 343 -269 l 389 -189 b 431 -214 397 -206 413 -214 b 478 -167 454 -214 478 -196 b 431 -121 478 -139 454 -121 b 389 -144 413 -121 397 -131 l 317 -101 l 346 -11 b 47 357 168 21 47 167 b 419 732 47 572 206 732 b 750 519 567 732 693 660 l 631 457 b 419 604 606 535 526 604 b 189 357 286 604 189 501 b 419 110 189 207 290 110 b 642 265 517 110 606 161 l 760 210 b 432 -18 706 58 579 -14 l 396 -122 b 471 -65 411 -79 442 -65 b 564 -168 519 -65 564 -108 b 432 -293 564 -242 510 -293 "},"ĉ":{"ha":807,"x_min":0,"x_max":0,"o":"m 419 -18 b 47 357 203 -18 47 142 b 419 732 47 572 206 732 b 750 519 567 732 693 660 l 631 457 b 419 604 606 535 526 604 b 189 357 286 604 189 501 b 419 110 189 207 290 110 b 642 265 517 110 606 161 l 760 210 b 419 -18 704 54 571 -18 m 308 1015 l 531 1015 l 621 800 l 501 800 l 419 993 l 339 800 l 218 800 "},"ċ":{"ha":807,"x_min":0,"x_max":0,"o":"m 419 -18 b 47 357 203 -18 47 142 b 419 732 47 572 206 732 b 750 519 567 732 693 660 l 631 457 b 419 604 606 535 526 604 b 189 357 286 604 189 501 b 419 110 189 207 290 110 b 642 265 517 110 606 161 l 760 210 b 419 -18 704 54 571 -18 m 350 1004 l 494 1004 l 494 840 l 350 840 "},"d":{"ha":867,"x_min":0,"x_max":0,"o":"m 368 -18 b 47 356 189 -18 47 142 b 368 732 47 575 186 732 b 636 468 515 732 618 632 l 636 972 l 775 972 l 775 0 l 636 0 l 636 257 b 368 -18 618 99 536 -18 m 189 356 b 417 108 189 204 288 108 b 642 356 551 108 642 217 b 415 606 642 514 539 606 b 189 356 288 606 189 504 "},"ð":{"ha":815,"x_min":0,"x_max":0,"o":"m 401 -18 b 47 344 186 -18 47 139 b 353 692 47 565 203 692 b 601 496 499 692 579 596 b 411 794 585 597 514 703 l 193 725 l 193 822 l 324 865 b 135 972 265 906 201 943 l 331 972 b 449 906 371 953 411 931 l 656 972 l 656 874 l 539 836 b 768 369 676 718 768 560 b 401 -18 768 154 642 -18 m 188 344 b 404 107 188 208 274 107 b 628 344 551 107 628 215 b 411 578 628 479 540 578 b 188 344 272 578 188 475 "},"ď":{"ha":886,"x_min":0,"x_max":0,"o":"m 368 -18 b 47 356 189 -18 47 142 b 368 732 47 575 186 732 b 636 468 515 732 618 632 l 636 972 l 775 972 l 775 0 l 636 0 l 636 257 b 368 -18 618 99 536 -18 m 189 356 b 417 108 189 204 288 108 b 642 356 551 108 642 217 b 415 606 642 514 539 606 b 189 356 288 606 189 504 m 856 972 l 979 972 l 946 708 l 833 708 "},"đ":{"ha":888,"x_min":0,"x_max":0,"o":"m 438 897 l 636 897 l 636 972 l 775 972 l 775 897 l 860 897 l 860 789 l 775 789 l 775 0 l 636 0 l 636 257 b 368 -18 618 99 536 -18 b 47 356 189 -18 47 142 b 368 732 47 575 186 732 b 636 468 515 732 618 632 l 636 789 l 438 789 m 189 356 b 417 108 189 204 288 108 b 642 356 551 108 642 217 b 415 606 642 514 539 606 b 189 356 288 606 189 504 "},"e":{"ha":797,"x_min":0,"x_max":0,"o":"m 407 -18 b 47 361 196 -18 47 136 b 408 732 47 583 206 732 b 749 378 625 732 749 567 b 744 307 749 350 747 324 l 186 307 b 410 104 204 182 290 104 b 614 210 499 104 574 144 l 717 143 b 407 -18 661 49 551 -18 m 614 424 b 407 611 613 525 526 611 b 188 424 286 611 208 532 "},"é":{"ha":797,"x_min":0,"x_max":0,"o":"m 407 -18 b 47 361 196 -18 47 136 b 408 732 47 583 206 732 b 749 378 625 732 749 567 b 744 307 749 350 747 324 l 186 307 b 410 104 204 182 290 104 b 614 210 499 104 574 144 l 717 143 b 407 -18 661 49 551 -18 m 614 424 b 407 611 613 525 526 611 b 188 424 286 611 208 532 m 407 1011 l 547 1011 l 440 796 l 335 796 "},"ĕ":{"ha":797,"x_min":0,"x_max":0,"o":"m 407 -18 b 47 361 196 -18 47 136 b 408 732 47 583 206 732 b 749 378 625 732 749 567 b 744 307 749 350 747 324 l 186 307 b 410 104 204 182 290 104 b 614 210 499 104 574 144 l 717 143 b 407 -18 661 49 551 -18 m 614 424 b 407 611 613 525 526 611 b 188 424 286 611 208 532 m 208 1004 l 311 1004 l 311 988 b 400 904 311 942 339 904 b 488 988 458 904 488 942 l 488 1004 l 590 1004 l 590 985 b 400 804 590 875 515 804 b 208 985 283 804 208 875 "},"ě":{"ha":797,"x_min":0,"x_max":0,"o":"m 407 -18 b 47 361 196 -18 47 136 b 408 732 47 583 206 732 b 749 378 625 732 749 567 b 744 307 749 350 747 324 l 186 307 b 410 104 204 182 290 104 b 614 210 499 104 574 144 l 717 143 b 407 -18 661 49 551 -18 m 614 424 b 407 611 613 525 526 611 b 188 424 286 611 208 532 m 317 1013 l 399 819 l 479 1013 l 600 1013 l 510 797 l 288 797 l 197 1013 "},"ê":{"ha":797,"x_min":0,"x_max":0,"o":"m 407 -18 b 47 361 196 -18 47 136 b 408 732 47 583 206 732 b 749 378 625 732 749 567 b 744 307 749 350 747 324 l 186 307 b 410 104 204 182 290 104 b 614 210 499 104 574 144 l 717 143 b 407 -18 661 49 551 -18 m 614 424 b 407 611 613 525 526 611 b 188 424 286 611 208 532 m 288 1011 l 510 1011 l 600 796 l 481 796 l 399 989 l 318 796 l 197 796 "},"ë":{"ha":797,"x_min":0,"x_max":0,"o":"m 407 -18 b 47 361 196 -18 47 136 b 408 732 47 583 206 732 b 749 378 625 732 749 567 b 744 307 749 350 747 324 l 186 307 b 410 104 204 182 290 104 b 614 210 499 104 574 144 l 717 143 b 407 -18 661 49 551 -18 m 614 424 b 407 611 613 525 526 611 b 188 424 286 611 208 532 m 199 999 l 344 999 l 344 843 l 199 843 m 446 999 l 592 999 l 592 843 l 446 843 "},"ė":{"ha":797,"x_min":0,"x_max":0,"o":"m 407 -18 b 47 361 196 -18 47 136 b 408 732 47 583 206 732 b 749 378 625 732 749 567 b 744 307 749 350 747 324 l 186 307 b 410 104 204 182 290 104 b 614 210 499 104 574 144 l 717 143 b 407 -18 661 49 551 -18 m 614 424 b 407 611 613 525 526 611 b 188 424 286 611 208 532 m 329 1000 l 474 1000 l 474 836 l 329 836 "},"è":{"ha":797,"x_min":0,"x_max":0,"o":"m 407 -18 b 47 361 196 -18 47 136 b 408 732 47 583 206 732 b 749 378 625 732 749 567 b 744 307 749 350 747 324 l 186 307 b 410 104 204 182 290 104 b 614 210 499 104 574 144 l 717 143 b 407 -18 661 49 551 -18 m 614 424 b 407 611 613 525 526 611 b 188 424 286 611 208 532 m 396 1011 l 468 796 l 363 796 l 256 1011 "},"ē":{"ha":797,"x_min":0,"x_max":0,"o":"m 407 -18 b 47 361 196 -18 47 136 b 408 732 47 583 206 732 b 749 378 625 732 749 567 b 744 307 749 350 747 324 l 186 307 b 410 104 204 182 290 104 b 614 210 499 104 574 144 l 717 143 b 407 -18 661 49 551 -18 m 614 424 b 407 611 613 525 526 611 b 188 424 286 611 208 532 m 228 960 l 572 960 l 572 842 l 228 842 "},"ę":{"ha":797,"x_min":0,"x_max":0,"o":"m 504 -293 b 372 -172 438 -293 372 -251 b 411 -75 372 -132 385 -107 l 463 -14 b 407 -18 444 -17 425 -18 b 47 361 196 -18 47 136 b 408 732 47 583 206 732 b 749 378 625 732 749 567 b 744 307 749 350 747 324 l 188 307 b 410 104 206 183 289 104 b 614 210 499 104 574 144 l 717 143 l 510 -112 b 493 -150 499 -125 493 -137 b 536 -192 493 -175 513 -192 b 574 -182 551 -192 563 -187 l 597 -272 b 504 -293 578 -283 542 -293 m 614 424 b 407 611 613 525 526 611 b 188 424 286 611 208 531 "},"ẽ":{"ha":797,"x_min":0,"x_max":0,"o":"m 407 -18 b 47 361 196 -18 47 136 b 408 732 47 583 206 732 b 749 378 625 732 749 567 b 744 307 749 350 747 324 l 186 307 b 410 104 204 182 290 104 b 614 210 499 104 574 144 l 717 143 b 407 -18 661 49 551 -18 m 174 843 b 301 982 176 931 231 982 b 392 953 336 982 368 967 l 426 932 b 475 913 443 922 460 913 b 525 975 506 913 525 936 l 525 985 l 614 944 b 486 806 611 858 557 806 b 399 835 451 806 425 818 l 365 856 b 314 875 350 865 335 875 b 263 811 283 875 263 850 l 263 800 l 174 843 m 614 424 b 407 611 613 525 526 611 b 188 424 286 611 208 532 "},"f":{"ha":558,"x_min":0,"x_max":0,"o":"m 172 592 l 31 592 l 31 714 l 249 714 b 110 835 181 714 110 754 b 279 972 110 913 169 972 l 460 972 l 460 851 l 310 851 b 228 783 261 851 228 825 b 315 714 228 736 267 714 l 513 714 l 513 592 l 311 592 l 311 0 l 172 0 "},"g":{"ha":797,"x_min":0,"x_max":0,"o":"m 365 -310 b 24 -118 163 -310 24 -239 b 221 26 24 -42 83 26 l 243 26 b 96 135 143 36 96 78 b 243 240 96 188 143 236 b 76 476 139 276 76 364 b 361 732 76 631 197 732 b 506 699 424 732 479 713 l 728 726 l 728 592 l 465 592 b 639 436 596 583 639 500 b 361 221 639 300 510 221 b 254 236 322 221 286 226 b 231 190 240 225 231 207 b 304 139 231 154 267 139 l 486 139 b 739 -68 638 139 739 57 b 365 -310 739 -260 532 -310 m 153 -75 b 365 -189 153 -162 256 -189 b 597 -72 492 -189 597 -160 b 468 19 597 -19 554 19 l 269 19 b 153 -75 199 19 153 -21 m 211 476 b 361 331 211 390 271 331 b 510 476 451 331 510 390 b 361 621 510 558 451 621 b 211 476 271 621 211 558 "},"ğ":{"ha":797,"x_min":0,"x_max":0,"o":"m 365 -310 b 24 -118 163 -310 24 -239 b 221 26 24 -42 83 26 l 243 26 b 96 135 143 36 96 78 b 243 240 96 188 143 236 b 76 476 139 276 76 364 b 361 732 76 631 197 732 b 506 699 424 732 479 713 l 728 726 l 728 592 l 465 592 b 639 436 596 583 639 500 b 361 221 639 300 510 221 b 254 236 322 221 286 226 b 231 190 240 225 231 207 b 304 139 231 154 267 139 l 486 139 b 739 -68 638 139 739 57 b 365 -310 739 -260 532 -310 m 153 -75 b 365 -189 153 -162 256 -189 b 597 -72 492 -189 597 -160 b 468 19 597 -19 554 19 l 269 19 b 153 -75 199 19 153 -21 m 183 1010 l 286 1010 l 286 993 b 375 910 286 947 314 910 b 463 993 433 910 463 947 l 463 1010 l 565 1010 l 565 990 b 375 810 565 881 490 810 b 183 990 258 810 183 881 m 211 476 b 361 331 211 390 271 331 b 510 476 451 331 510 390 b 361 621 510 558 451 621 b 211 476 271 621 211 558 "},"ǧ":{"ha":797,"x_min":0,"x_max":0,"o":"m 365 -310 b 24 -118 163 -310 24 -239 b 221 26 24 -42 83 26 l 243 26 b 96 135 143 36 96 78 b 243 240 96 188 143 236 b 76 476 139 276 76 364 b 361 732 76 631 197 732 b 506 699 424 732 479 713 l 728 726 l 728 592 l 465 592 b 639 436 596 583 639 500 b 361 221 639 300 510 221 b 254 236 322 221 286 226 b 231 190 240 225 231 207 b 304 139 231 154 267 139 l 486 139 b 739 -68 638 139 739 57 b 365 -310 739 -260 532 -310 m 153 -75 b 365 -189 153 -162 256 -189 b 597 -72 492 -189 597 -160 b 468 19 597 -19 554 19 l 269 19 b 153 -75 199 19 153 -21 m 293 1017 l 375 824 l 456 1017 l 576 1017 l 486 801 l 264 801 l 174 1017 m 211 476 b 361 331 211 390 271 331 b 510 476 451 331 510 390 b 361 621 510 558 451 621 b 211 476 271 621 211 558 "},"ĝ":{"ha":797,"x_min":0,"x_max":0,"o":"m 365 -310 b 24 -118 163 -310 24 -239 b 221 26 24 -42 83 26 l 243 26 b 96 135 143 36 96 78 b 243 240 96 188 143 236 b 76 476 139 276 76 364 b 361 732 76 631 197 732 b 506 699 424 732 479 713 l 728 726 l 728 592 l 465 592 b 639 436 596 583 639 500 b 361 221 639 300 510 221 b 254 236 322 221 286 226 b 231 190 240 225 231 207 b 304 139 231 154 267 139 l 486 139 b 739 -68 638 139 739 57 b 365 -310 739 -260 532 -310 m 153 -75 b 365 -189 153 -162 256 -189 b 597 -72 492 -189 597 -160 b 468 19 597 -19 554 19 l 269 19 b 153 -75 199 19 153 -21 m 263 1017 l 485 1017 l 575 801 l 456 801 l 374 994 l 293 801 l 172 801 m 211 476 b 361 331 211 390 271 331 b 510 476 451 331 510 390 b 361 621 510 558 451 621 b 211 476 271 621 211 558 "},"ģ":{"ha":797,"x_min":0,"x_max":0,"o":"m 365 -310 b 24 -118 163 -310 24 -239 b 221 26 24 -42 83 26 l 243 26 b 96 135 143 36 96 78 b 243 240 96 188 143 236 b 76 476 139 276 76 364 b 361 732 76 631 197 732 b 506 699 424 732 479 713 l 728 726 l 728 592 l 465 592 b 639 436 596 583 639 500 b 361 221 639 300 510 221 b 254 236 322 221 286 226 b 231 190 240 225 231 207 b 304 139 231 154 267 139 l 486 139 b 739 -68 638 139 739 57 b 365 -310 739 -260 532 -310 m 153 -75 b 365 -189 153 -162 256 -189 b 597 -72 492 -189 597 -160 b 468 19 597 -19 554 19 l 269 19 b 153 -75 199 19 153 -21 m 211 476 b 361 331 211 390 271 331 b 510 476 451 331 510 390 b 361 621 510 558 451 621 b 211 476 271 621 211 558 m 299 936 b 428 1078 299 1017 350 1067 l 454 1000 b 390 933 418 993 390 979 l 390 929 l 440 929 l 440 796 l 299 796 "},"ġ":{"ha":797,"x_min":0,"x_max":0,"o":"m 365 -310 b 24 -118 163 -310 24 -239 b 221 26 24 -42 83 26 l 243 26 b 96 135 143 36 96 78 b 243 240 96 188 143 236 b 76 476 139 276 76 364 b 361 732 76 631 197 732 b 506 699 424 732 479 713 l 728 726 l 728 592 l 465 592 b 639 436 596 583 639 500 b 361 221 639 300 510 221 b 254 236 322 221 286 226 b 231 190 240 225 231 207 b 304 139 231 154 267 139 l 486 139 b 739 -68 638 139 739 57 b 365 -310 739 -260 532 -310 m 153 -75 b 365 -189 153 -162 256 -189 b 597 -72 492 -189 597 -160 b 468 19 597 -19 554 19 l 269 19 b 153 -75 199 19 153 -21 m 211 476 b 361 331 211 390 271 331 b 510 476 451 331 510 390 b 361 621 510 558 451 621 b 211 476 271 621 211 558 m 304 1006 l 449 1006 l 449 842 l 304 842 "},"h":{"ha":817,"x_min":0,"x_max":0,"o":"m 103 972 l 242 972 l 242 486 b 476 732 247 615 332 732 b 726 472 640 732 726 608 l 726 0 l 588 0 l 588 432 b 421 600 588 531 514 600 b 242 417 314 600 242 522 l 242 0 l 103 0 "},"ħ":{"ha":817,"x_min":0,"x_max":0,"o":"m 21 897 l 103 897 l 103 972 l 242 972 l 242 897 l 443 897 l 443 789 l 242 789 l 242 486 b 476 732 247 615 332 732 b 726 472 640 732 726 608 l 726 0 l 588 0 l 588 432 b 421 600 588 531 514 600 b 242 417 314 600 242 522 l 242 0 l 103 0 l 103 789 l 21 789 "},"ĥ":{"ha":817,"x_min":0,"x_max":0,"o":"m 103 972 l 242 972 l 242 486 b 476 732 247 615 332 732 b 726 472 640 732 726 608 l 726 0 l 588 0 l 588 432 b 421 600 588 531 514 600 b 242 417 314 600 242 522 l 242 0 l 103 0 m 60 1238 l 282 1238 l 372 1022 l 253 1022 l 171 1215 l 90 1022 l -31 1022 "},"i":{"ha":332,"x_min":0,"x_max":0,"o":"m 97 714 l 236 714 l 236 0 l 97 0 m 94 985 l 239 985 l 239 821 l 94 821 "},"ı":{"ha":333,"x_min":0,"x_max":0,"o":"m 103 714 l 242 714 l 242 0 l 103 0 "},"í":{"ha":333,"x_min":0,"x_max":0,"o":"m 103 714 l 242 714 l 242 0 l 103 0 m 176 1017 l 317 1017 l 210 801 l 104 801 "},"ĭ":{"ha":333,"x_min":0,"x_max":0,"o":"m 103 714 l 242 714 l 242 0 l 103 0 m -21 1010 l 82 1010 l 82 993 b 171 910 82 947 110 910 b 258 993 229 910 258 947 l 258 1010 l 361 1010 l 361 990 b 171 810 361 881 286 810 b -21 990 54 810 -21 881 "},"ǐ":{"ha":333,"x_min":0,"x_max":0,"o":"m 103 714 l 242 714 l 242 0 l 103 0 m 88 1017 l 169 824 l 250 1017 l 371 1017 l 281 801 l 58 801 l -32 1017 "},"î":{"ha":333,"x_min":0,"x_max":0,"o":"m 103 714 l 242 714 l 242 0 l 103 0 m 57 1017 l 279 1017 l 369 801 l 250 801 l 168 994 l 88 801 l -33 801 "},"ï":{"ha":333,"x_min":0,"x_max":0,"o":"m 103 714 l 242 714 l 242 0 l 103 0 m -31 1004 l 115 1004 l 115 849 l -31 849 m 217 1004 l 363 1004 l 363 849 l 217 849 "},"ì":{"ha":333,"x_min":0,"x_max":0,"o":"m 103 714 l 242 714 l 242 0 l 103 0 m 167 1017 l 239 801 l 133 801 l 26 1017 "},"ĳ":{"ha":661,"x_min":0,"x_max":0,"o":"m 97 714 l 236 714 l 236 0 l 97 0 m 94 985 l 239 985 l 239 821 l 94 821 m 310 -162 l 347 -162 b 425 -86 390 -162 425 -143 l 425 714 l 564 714 l 564 -90 b 368 -292 564 -225 476 -292 l 310 -292 m 421 985 l 565 985 l 565 821 l 421 821 "},"ī":{"ha":333,"x_min":0,"x_max":0,"o":"m 103 714 l 242 714 l 242 0 l 103 0 m -3 965 l 342 965 l 342 847 l -3 847 "},"į":{"ha":340,"x_min":0,"x_max":0,"o":"m 104 714 l 243 714 l 243 0 l 242 0 l 156 -112 b 139 -150 144 -125 139 -137 b 182 -192 139 -175 158 -192 b 219 -182 196 -192 208 -187 l 242 -272 b 150 -293 222 -283 188 -293 b 18 -172 83 -293 18 -251 b 56 -75 18 -132 31 -108 l 114 0 l 104 0 m 101 1006 l 246 1006 l 246 842 l 101 842 "},"ĩ":{"ha":333,"x_min":0,"x_max":0,"o":"m 103 714 l 242 714 l 242 0 l 103 0 m -56 849 b 72 988 -53 936 1 988 b 163 958 107 988 139 972 l 197 938 b 246 918 214 928 231 918 b 296 981 276 918 296 942 l 296 990 l 385 950 b 257 811 382 864 328 811 b 169 840 222 811 196 824 l 136 861 b 85 881 121 871 106 881 b 33 817 54 881 33 856 l 33 806 l -56 849 "},"j":{"ha":329,"x_min":0,"x_max":0,"o":"m -22 -162 l 15 -162 b 93 -86 58 -162 93 -143 l 93 714 l 232 714 l 232 -90 b 36 -292 232 -225 144 -292 l -22 -292 m 89 985 l 233 985 l 233 821 l 89 821 "},"ȷ":{"ha":340,"x_min":0,"x_max":0,"o":"m -12 -162 l 25 -162 b 103 -86 68 -162 103 -143 l 103 713 l 242 713 l 242 -90 b 46 -292 242 -225 154 -292 l -12 -292 "},"ĵ":{"ha":340,"x_min":0,"x_max":0,"o":"m -12 -162 l 25 -162 b 103 -86 68 -162 103 -143 l 103 713 l 242 713 l 242 -90 b 46 -292 242 -225 154 -292 l -12 -292 m 58 1015 l 281 1015 l 371 800 l 251 800 l 169 993 l 89 800 l -32 800 "},"k":{"ha":769,"x_min":0,"x_max":0,"o":"m 103 972 l 242 972 l 242 150 b 394 563 242 368 293 456 l 546 714 l 724 714 l 461 443 l 739 0 l 578 0 l 364 343 b 242 31 319 297 242 204 l 242 0 l 103 0 "},"ķ":{"ha":769,"x_min":0,"x_max":0,"o":"m 103 972 l 242 972 l 242 150 b 394 563 242 368 293 456 l 546 714 l 724 714 l 461 443 l 739 0 l 578 0 l 364 343 b 242 31 319 297 242 204 l 242 0 l 103 0 m 325 -262 b 389 -196 361 -256 389 -242 l 389 -192 l 339 -192 l 339 -58 l 481 -58 l 481 -199 b 351 -340 481 -279 429 -329 l 325 -262 "},"ĸ":{"ha":763,"x_min":0,"x_max":0,"o":"m 103 714 l 240 714 l 240 150 b 383 546 240 344 288 446 l 550 714 l 721 714 l 454 439 l 729 0 l 569 0 l 357 339 b 240 31 314 292 240 200 l 240 0 l 103 0 "},"l":{"ha":321,"x_min":0,"x_max":0,"o":"m 92 972 l 231 972 l 231 0 l 92 0 "},"ĺ":{"ha":321,"x_min":0,"x_max":0,"o":"m 92 972 l 231 972 l 231 0 l 92 0 m 169 1268 l 310 1268 l 203 1053 l 97 1053 "},"ľ":{"ha":422,"x_min":0,"x_max":0,"o":"m 92 972 l 231 972 l 231 0 l 92 0 m 333 972 l 457 972 l 424 708 l 311 708 "},"ļ":{"ha":321,"x_min":0,"x_max":0,"o":"m 92 972 l 231 972 l 231 0 l 92 0 m 75 -262 b 139 -196 111 -256 139 -242 l 139 -192 l 89 -192 l 89 -58 l 231 -58 l 231 -199 b 101 -340 231 -279 179 -329 l 75 -262 "},"ŀ":{"ha":564,"x_min":0,"x_max":0,"o":"m 92 972 l 231 972 l 231 0 l 92 0 m 336 660 l 508 660 l 508 472 l 336 472 "},"ł":{"ha":439,"x_min":0,"x_max":0,"o":"m 26 544 l 115 594 l 115 972 l 254 972 l 254 674 l 400 757 l 400 624 l 254 540 l 254 0 l 115 0 l 115 461 l 26 411 "},"m":{"ha":1267,"x_min":0,"x_max":0,"o":"m 103 714 l 242 714 l 242 486 b 467 732 242 632 329 732 b 710 486 583 732 693 667 b 933 732 715 642 808 732 b 1175 472 1093 732 1175 611 l 1175 0 l 1036 0 l 1036 432 b 875 600 1036 535 972 600 b 710 417 782 600 710 533 l 710 0 l 571 0 l 571 433 b 406 600 571 535 499 600 b 242 417 310 600 242 524 l 242 0 l 103 0 "},"n":{"ha":817,"x_min":0,"x_max":0,"o":"m 103 714 l 242 714 l 242 486 b 476 732 242 615 332 732 b 726 472 642 732 726 608 l 726 0 l 588 0 l 588 432 b 421 600 588 531 514 600 b 242 417 314 600 242 522 l 242 0 l 103 0 "},"ń":{"ha":817,"x_min":0,"x_max":0,"o":"m 103 714 l 242 714 l 242 486 b 476 732 242 615 332 732 b 726 472 642 732 726 608 l 726 0 l 588 0 l 588 432 b 421 600 588 531 514 600 b 242 417 314 600 242 522 l 242 0 l 103 0 m 442 1017 l 582 1017 l 475 801 l 369 801 "},"ŉ":{"ha":817,"x_min":0,"x_max":0,"o":"m 103 714 l 242 714 l 242 486 b 476 732 242 615 332 732 b 726 472 642 732 726 608 l 726 0 l 588 0 l 588 432 b 421 600 588 531 514 600 b 242 417 314 600 242 522 l 242 0 l 103 0 m -40 786 b 24 853 -4 793 24 807 l 24 857 l -26 857 l -26 990 l 115 990 l 115 850 b -14 708 115 769 64 719 l -40 786 "},"ň":{"ha":817,"x_min":0,"x_max":0,"o":"m 103 714 l 242 714 l 242 486 b 476 732 242 615 332 732 b 726 472 642 732 726 608 l 726 0 l 588 0 l 588 432 b 421 600 588 531 514 600 b 242 417 314 600 242 522 l 242 0 l 103 0 m 353 1017 l 435 824 l 515 1017 l 636 1017 l 546 801 l 324 801 l 233 1017 "},"ņ":{"ha":817,"x_min":0,"x_max":0,"o":"m 103 714 l 242 714 l 242 486 b 476 732 242 615 332 732 b 726 472 642 732 726 608 l 726 0 l 588 0 l 588 432 b 421 600 588 531 514 600 b 242 417 314 600 242 522 l 242 0 l 103 0 m 336 -262 b 400 -196 372 -256 400 -242 l 400 -192 l 350 -192 l 350 -58 l 492 -58 l 492 -199 b 363 -340 492 -279 440 -329 l 336 -262 "},"ñ":{"ha":817,"x_min":0,"x_max":0,"o":"m 103 714 l 242 714 l 242 486 b 476 732 242 615 332 732 b 726 472 642 732 726 608 l 726 0 l 588 0 l 588 432 b 421 600 588 531 514 600 b 242 417 314 600 242 522 l 242 0 l 103 0 m 210 849 b 338 988 213 936 267 988 b 428 958 372 988 404 972 l 463 938 b 511 918 479 928 496 918 b 561 981 542 918 561 942 l 561 990 l 650 950 b 522 811 647 864 593 811 b 435 840 488 811 461 824 l 401 861 b 350 881 386 871 371 881 b 299 817 319 881 299 856 l 299 806 l 210 849 "},"ŋ":{"ha":817,"x_min":0,"x_max":0,"o":"m 435 -194 l 474 -194 b 588 -81 549 -194 588 -147 l 588 432 b 421 600 588 531 514 600 b 242 417 314 600 242 522 l 242 0 l 103 0 l 103 714 l 242 714 l 242 486 b 476 732 242 615 332 732 b 726 472 642 732 726 608 l 726 -82 b 472 -319 726 -237 625 -319 l 435 -319 "},"o":{"ha":847,"x_min":0,"x_max":0,"o":"m 424 -18 b 47 357 206 -18 47 138 b 424 732 47 575 206 732 b 800 357 638 732 800 575 b 424 -18 800 138 638 -18 m 189 357 b 424 108 189 208 289 108 b 658 357 558 108 658 208 b 424 606 658 500 558 606 b 189 357 289 606 189 500 "},"ó":{"ha":847,"x_min":0,"x_max":0,"o":"m 424 -18 b 47 357 206 -18 47 138 b 424 732 47 575 206 732 b 800 357 638 732 800 575 b 424 -18 800 138 638 -18 m 189 357 b 424 108 189 208 289 108 b 658 357 558 108 658 208 b 424 606 658 500 558 606 b 189 357 289 606 189 500 m 431 1017 l 571 1017 l 464 801 l 358 801 "},"ŏ":{"ha":847,"x_min":0,"x_max":0,"o":"m 424 -18 b 47 357 206 -18 47 138 b 424 732 47 575 206 732 b 800 357 638 732 800 575 b 424 -18 800 138 638 -18 m 189 357 b 424 108 189 208 289 108 b 658 357 558 108 658 208 b 424 606 658 500 558 606 b 189 357 289 606 189 500 m 232 1010 l 335 1010 l 335 993 b 424 910 335 947 363 910 b 511 993 482 910 511 947 l 511 1010 l 614 1010 l 614 990 b 424 810 614 881 539 810 b 232 990 307 810 232 881 "},"ǒ":{"ha":847,"x_min":0,"x_max":0,"o":"m 424 -18 b 47 357 206 -18 47 138 b 424 732 47 575 206 732 b 800 357 638 732 800 575 b 424 -18 800 138 638 -18 m 189 357 b 424 108 189 208 289 108 b 658 357 558 108 658 208 b 424 606 658 500 558 606 b 189 357 289 606 189 500 m 342 1017 l 424 824 l 504 1017 l 625 1017 l 535 801 l 313 801 l 222 1017 "},"ô":{"ha":847,"x_min":0,"x_max":0,"o":"m 424 -18 b 47 357 206 -18 47 138 b 424 732 47 575 206 732 b 800 357 638 732 800 575 b 424 -18 800 138 638 -18 m 189 357 b 424 108 189 208 289 108 b 658 357 558 108 658 208 b 424 606 658 500 558 606 b 189 357 289 606 189 500 m 311 1017 l 533 1017 l 624 801 l 504 801 l 422 994 l 342 801 l 221 801 "},"ö":{"ha":847,"x_min":0,"x_max":0,"o":"m 424 -18 b 47 357 206 -18 47 138 b 424 732 47 575 206 732 b 800 357 638 732 800 575 b 424 -18 800 138 638 -18 m 189 357 b 424 108 189 208 289 108 b 658 357 558 108 658 208 b 424 606 658 500 558 606 b 189 357 289 606 189 500 m 224 1004 l 369 1004 l 369 849 l 224 849 m 471 1004 l 617 1004 l 617 849 l 471 849 "},"ò":{"ha":847,"x_min":0,"x_max":0,"o":"m 424 -18 b 47 357 206 -18 47 138 b 424 732 47 575 206 732 b 800 357 638 732 800 575 b 424 -18 800 138 638 -18 m 189 357 b 424 108 189 208 289 108 b 658 357 558 108 658 208 b 424 606 658 500 558 606 b 189 357 289 606 189 500 m 419 1017 l 492 801 l 386 801 l 279 1017 "},"ő":{"ha":847,"x_min":0,"x_max":0,"o":"m 424 -18 b 47 357 206 -18 47 138 b 424 732 47 575 206 732 b 800 357 638 732 800 575 b 424 -18 800 138 638 -18 m 189 357 b 424 108 189 208 289 108 b 658 357 558 108 658 208 b 424 606 658 500 558 606 b 189 357 289 606 189 500 m 336 1026 l 472 1026 l 361 801 l 258 801 m 543 1026 l 679 1026 l 568 801 l 465 801 "},"ō":{"ha":847,"x_min":0,"x_max":0,"o":"m 424 -18 b 47 357 206 -18 47 138 b 424 732 47 575 206 732 b 800 357 638 732 800 575 b 424 -18 800 138 638 -18 m 189 357 b 424 108 189 208 289 108 b 658 357 558 108 658 208 b 424 606 658 500 558 606 b 189 357 289 606 189 500 m 251 965 l 596 965 l 596 847 l 251 847 "},"ø":{"ha":847,"x_min":0,"x_max":0,"o":"m 101 -83 l 185 60 b 47 357 99 126 47 232 b 424 732 47 575 206 732 b 560 710 472 732 518 724 l 611 799 l 749 799 l 664 651 b 800 357 747 585 800 481 b 424 -18 800 138 638 -18 b 288 4 375 -18 329 -10 l 238 -83 m 189 357 b 253 179 189 285 213 224 l 493 596 b 424 606 472 601 449 606 b 189 357 289 606 189 500 m 354 118 b 424 108 376 111 399 108 b 658 357 558 108 658 208 b 594 532 658 426 635 488 l 354 118 "},"õ":{"ha":847,"x_min":0,"x_max":0,"o":"m 424 -18 b 47 357 206 -18 47 138 b 424 732 47 575 206 732 b 800 357 638 732 800 575 b 424 -18 800 138 638 -18 m 189 357 b 424 108 189 208 289 108 b 658 357 558 108 658 208 b 424 606 658 500 558 606 b 189 357 289 606 189 500 m 197 849 b 325 988 200 936 254 988 b 415 958 360 988 392 972 l 450 938 b 499 918 467 928 483 918 b 549 981 529 918 549 942 l 549 990 l 638 950 b 510 811 635 864 581 811 b 422 840 475 811 449 824 l 389 861 b 338 881 374 871 358 881 b 286 817 307 881 286 856 l 286 806 l 197 849 "},"œ":{"ha":1300,"x_min":0,"x_max":0,"o":"m 376 -18 b 47 357 194 -18 47 138 b 376 732 47 575 193 732 b 668 422 549 732 664 596 b 950 732 672 615 797 732 b 1251 381 1147 732 1260 567 l 1249 311 l 686 311 b 914 104 703 185 786 104 b 1117 210 1003 104 1074 144 l 1219 143 b 936 -18 1168 51 1075 -18 b 668 296 807 -18 668 92 b 376 -18 664 132 550 -18 m 189 357 b 424 108 189 207 289 108 b 658 357 558 108 658 207 b 424 606 658 503 558 606 b 189 357 289 606 189 503 m 1117 428 b 910 614 1115 532 1031 614 b 689 428 794 614 711 542 "},"p":{"ha":878,"x_min":0,"x_max":0,"o":"m 461 606 b 236 357 328 606 236 496 b 464 108 236 199 339 108 b 689 357 590 108 689 208 b 461 606 689 510 590 606 m 103 714 l 242 714 l 242 456 b 518 732 261 614 353 732 b 831 357 697 732 831 571 b 518 -18 831 139 700 -18 b 242 246 375 -18 261 82 l 242 -292 l 103 -292 "},"þ":{"ha":876,"x_min":0,"x_max":0,"o":"m 460 606 b 235 357 326 606 235 496 b 463 108 235 199 339 108 b 688 357 590 108 688 208 b 460 606 688 510 590 606 m 103 972 l 240 972 l 240 456 b 517 732 260 614 351 732 b 829 357 697 732 829 571 b 517 -18 829 139 700 -18 b 240 246 374 -18 260 82 l 240 -292 l 103 -292 "},"q":{"ha":863,"x_min":0,"x_max":0,"o":"m 417 606 b 189 357 286 606 189 510 b 414 108 189 208 286 108 b 642 357 538 108 642 199 b 417 606 642 496 550 606 m 47 357 b 364 732 47 571 183 732 b 636 456 528 732 617 614 l 636 714 l 774 714 l 774 -292 l 636 -292 l 636 246 b 364 -18 617 82 507 -18 b 47 357 181 -18 47 139 "},"r":{"ha":542,"x_min":0,"x_max":0,"o":"m 103 714 l 240 714 l 240 431 b 501 721 243 613 346 721 l 501 572 l 454 572 b 242 358 310 572 242 474 l 242 0 l 103 0 "},"ŕ":{"ha":542,"x_min":0,"x_max":0,"o":"m 103 714 l 240 714 l 240 431 b 501 721 243 613 346 721 l 501 572 l 454 572 b 242 358 310 572 242 474 l 242 0 l 103 0 m 322 1011 l 463 1011 l 356 796 l 250 796 "},"ř":{"ha":542,"x_min":0,"x_max":0,"o":"m 103 714 l 240 714 l 240 431 b 501 721 243 613 346 721 l 501 572 l 454 572 b 242 358 310 572 242 474 l 242 0 l 103 0 m 233 1013 l 315 819 l 396 1013 l 517 1013 l 426 797 l 204 797 l 114 1013 "},"ŗ":{"ha":542,"x_min":0,"x_max":0,"o":"m 103 714 l 240 714 l 240 431 b 501 721 243 613 346 721 l 501 572 l 454 572 b 242 358 310 572 242 474 l 242 0 l 103 0 m 90 -262 b 154 -196 126 -256 154 -242 l 154 -192 l 104 -192 l 104 -58 l 246 -58 l 246 -199 b 117 -340 246 -279 194 -329 l 90 -262 "},"s":{"ha":731,"x_min":0,"x_max":0,"o":"m 350 -18 b 51 199 186 -18 78 71 l 178 232 b 358 103 197 146 271 103 b 517 201 464 103 517 147 b 415 294 517 250 485 281 l 293 318 b 96 518 190 338 96 390 b 367 732 96 638 197 732 b 651 526 514 732 628 653 l 528 493 b 365 614 517 565 453 614 b 229 522 275 614 229 572 b 331 436 229 475 264 449 l 450 411 b 653 206 572 386 653 321 b 350 -18 653 74 536 -18 "},"ś":{"ha":731,"x_min":0,"x_max":0,"o":"m 350 -18 b 51 199 186 -18 78 71 l 178 232 b 358 103 197 146 271 103 b 517 201 464 103 517 147 b 415 294 517 250 485 281 l 293 318 b 96 518 190 338 96 390 b 367 732 96 638 197 732 b 651 526 514 732 628 653 l 528 493 b 365 614 517 565 453 614 b 229 522 275 614 229 572 b 331 436 229 475 264 449 l 450 411 b 653 206 572 386 653 321 b 350 -18 653 74 536 -18 m 382 1017 l 522 1017 l 415 801 l 310 801 "},"š":{"ha":731,"x_min":0,"x_max":0,"o":"m 350 -18 b 51 199 186 -18 78 71 l 178 232 b 358 103 197 146 271 103 b 517 201 464 103 517 147 b 415 294 517 250 485 281 l 293 318 b 96 518 190 338 96 390 b 367 732 96 638 197 732 b 651 526 514 732 628 653 l 528 493 b 365 614 517 565 453 614 b 229 522 275 614 229 572 b 331 436 229 475 264 449 l 450 411 b 653 206 572 386 653 321 b 350 -18 653 74 536 -18 m 293 1017 l 375 824 l 456 1017 l 576 1017 l 486 801 l 264 801 l 174 1017 "},"ş":{"ha":731,"x_min":0,"x_max":0,"o":"m 386 -293 b 278 -229 340 -293 297 -269 l 343 -189 b 385 -214 351 -206 367 -214 b 432 -167 408 -214 432 -196 b 385 -121 432 -139 408 -121 b 343 -144 367 -121 351 -131 l 271 -101 l 299 -15 b 51 199 164 1 75 85 l 178 232 b 358 103 197 146 271 103 b 517 201 464 103 517 147 b 415 294 517 250 485 281 l 293 318 b 96 518 190 338 96 390 b 367 732 96 638 197 732 b 651 526 514 732 628 653 l 528 493 b 365 614 517 565 453 614 b 229 522 275 614 229 572 b 331 436 229 475 264 449 l 450 411 b 653 206 572 386 653 321 b 388 -17 653 82 551 -6 l 350 -122 b 425 -65 365 -79 396 -65 b 518 -168 474 -65 518 -108 b 386 -293 518 -242 464 -293 "},"ŝ":{"ha":731,"x_min":0,"x_max":0,"o":"m 350 -18 b 51 199 186 -18 78 71 l 178 232 b 358 103 197 146 271 103 b 517 201 464 103 517 147 b 415 294 517 250 485 281 l 293 318 b 96 518 190 338 96 390 b 367 732 96 638 197 732 b 651 526 514 732 628 653 l 528 493 b 365 614 517 565 453 614 b 229 522 275 614 229 572 b 331 436 229 475 264 449 l 450 411 b 653 206 572 386 653 321 b 350 -18 653 74 536 -18 m 263 1017 l 485 1017 l 575 801 l 456 801 l 374 994 l 293 801 l 172 801 "},"ș":{"ha":731,"x_min":0,"x_max":0,"o":"m 350 -18 b 51 199 186 -18 78 71 l 178 232 b 358 103 197 146 271 103 b 517 201 464 103 517 147 b 415 294 517 250 485 281 l 293 318 b 96 518 190 338 96 390 b 367 732 96 638 197 732 b 651 526 514 732 628 653 l 528 493 b 365 614 517 565 453 614 b 229 522 275 614 229 572 b 331 436 229 475 264 449 l 450 411 b 653 206 572 386 653 321 b 350 -18 653 74 536 -18 m 263 -262 b 326 -196 299 -256 326 -242 l 326 -192 l 276 -192 l 276 -58 l 418 -58 l 418 -199 b 289 -340 418 -279 367 -329 l 263 -262 "},"ß":{"ha":843,"x_min":0,"x_max":0,"o":"m 460 -18 b 343 0 424 -18 378 -11 l 343 132 b 451 114 376 122 417 114 b 654 294 568 114 654 185 b 457 472 654 399 571 472 l 394 472 l 394 600 l 407 600 b 560 738 513 600 560 660 b 410 861 560 796 511 861 b 240 682 306 861 240 790 l 240 0 l 103 0 l 103 682 b 411 990 103 867 226 990 b 697 768 599 989 697 879 b 482 599 697 661 617 599 b 794 294 682 596 794 454 b 460 -18 794 99 651 -18 "},"t":{"ha":568,"x_min":0,"x_max":0,"o":"m 357 0 b 163 193 246 0 163 58 l 163 592 l 38 592 l 38 714 l 165 714 l 165 875 l 301 875 l 301 714 l 514 714 l 514 592 l 301 592 l 301 200 b 374 124 301 144 331 124 l 501 124 l 501 0 l 357 0 "},"ŧ":{"ha":568,"x_min":0,"x_max":0,"o":"m 43 490 l 163 490 l 163 592 l 38 592 l 38 714 l 165 714 l 165 875 l 301 875 l 301 714 l 514 714 l 514 592 l 301 592 l 301 490 l 507 490 l 507 376 l 301 376 l 301 200 b 374 124 301 144 331 124 l 501 124 l 501 0 l 357 0 b 163 193 246 0 163 58 l 163 376 l 43 376 "},"ť":{"ha":568,"x_min":0,"x_max":0,"o":"m 357 0 b 163 193 246 0 163 58 l 163 592 l 38 592 l 38 714 l 165 714 l 165 875 l 301 875 l 301 714 l 514 714 l 514 592 l 301 592 l 301 200 b 374 124 301 144 331 124 l 501 124 l 501 0 l 357 0 m 397 1056 l 521 1056 l 488 792 l 375 792 "},"ţ":{"ha":568,"x_min":0,"x_max":0,"o":"m 383 -293 b 275 -229 338 -293 294 -269 l 340 -189 b 382 -214 349 -206 364 -214 b 429 -167 406 -214 429 -196 b 382 -121 429 -139 406 -121 b 340 -144 364 -121 349 -131 l 268 -101 l 303 6 b 163 193 219 22 163 82 l 163 592 l 38 592 l 38 714 l 165 714 l 165 875 l 301 875 l 301 714 l 514 714 l 514 592 l 301 592 l 301 200 b 374 124 301 144 331 124 l 501 124 l 501 0 l 390 0 l 347 -122 b 422 -65 363 -79 393 -65 b 515 -168 471 -65 515 -108 b 383 -293 515 -242 461 -293 "},"ț":{"ha":568,"x_min":0,"x_max":0,"o":"m 357 0 b 163 193 246 0 163 58 l 163 592 l 38 592 l 38 714 l 165 714 l 165 875 l 301 875 l 301 714 l 514 714 l 514 592 l 301 592 l 301 200 b 374 124 301 144 331 124 l 501 124 l 501 0 l 357 0 m 260 -262 b 324 -196 296 -256 324 -242 l 324 -192 l 274 -192 l 274 -58 l 415 -58 l 415 -199 b 286 -340 415 -279 364 -329 l 260 -262 "},"u":{"ha":801,"x_min":0,"x_max":0,"o":"m 713 0 l 574 0 l 574 226 b 332 -18 565 99 479 -18 b 89 242 167 -18 89 104 l 89 714 l 228 714 l 228 282 b 392 114 228 171 299 114 b 574 296 499 114 574 192 l 574 714 l 713 714 "},"ú":{"ha":801,"x_min":0,"x_max":0,"o":"m 713 0 l 574 0 l 574 226 b 332 -18 565 99 479 -18 b 89 242 167 -18 89 104 l 89 714 l 228 714 l 228 282 b 392 114 228 171 299 114 b 574 296 499 114 574 192 l 574 714 l 713 714 m 407 1017 l 547 1017 l 440 801 l 335 801 "},"ŭ":{"ha":801,"x_min":0,"x_max":0,"o":"m 713 0 l 574 0 l 574 226 b 332 -18 565 99 479 -18 b 89 242 167 -18 89 104 l 89 714 l 228 714 l 228 282 b 392 114 228 171 299 114 b 574 296 499 114 574 192 l 574 714 l 713 714 m 210 1010 l 313 1010 l 313 993 b 401 910 313 947 340 910 b 489 993 460 910 489 947 l 489 1010 l 592 1010 l 592 990 b 401 810 592 881 517 810 b 210 990 285 810 210 881 "},"û":{"ha":801,"x_min":0,"x_max":0,"o":"m 713 0 l 574 0 l 574 226 b 332 -18 565 99 479 -18 b 89 242 167 -18 89 104 l 89 714 l 228 714 l 228 282 b 392 114 228 171 299 114 b 574 296 499 114 574 192 l 574 714 l 713 714 m 288 1017 l 510 1017 l 600 801 l 481 801 l 399 994 l 318 801 l 197 801 "},"ü":{"ha":801,"x_min":0,"x_max":0,"o":"m 713 0 l 574 0 l 574 226 b 332 -18 565 99 479 -18 b 89 242 167 -18 89 104 l 89 714 l 228 714 l 228 282 b 392 114 228 171 299 114 b 574 296 499 114 574 192 l 574 714 l 713 714 m 200 1004 l 346 1004 l 346 849 l 200 849 m 447 1004 l 593 1004 l 593 849 l 447 849 "},"ù":{"ha":801,"x_min":0,"x_max":0,"o":"m 713 0 l 574 0 l 574 226 b 332 -18 565 99 479 -18 b 89 242 167 -18 89 104 l 89 714 l 228 714 l 228 282 b 392 114 228 171 299 114 b 574 296 499 114 574 192 l 574 714 l 713 714 m 397 1017 l 469 801 l 364 801 l 257 1017 "},"ű":{"ha":801,"x_min":0,"x_max":0,"o":"m 713 0 l 574 0 l 574 226 b 332 -18 565 99 479 -18 b 89 242 167 -18 89 104 l 89 714 l 228 714 l 228 282 b 392 114 228 171 299 114 b 574 296 499 114 574 192 l 574 714 l 713 714 m 313 1026 l 449 1026 l 338 801 l 235 801 m 519 1026 l 656 1026 l 544 801 l 442 801 "},"ū":{"ha":801,"x_min":0,"x_max":0,"o":"m 713 0 l 574 0 l 574 226 b 332 -18 565 99 479 -18 b 89 242 167 -18 89 104 l 89 714 l 228 714 l 228 282 b 392 114 228 171 299 114 b 574 296 499 114 574 192 l 574 714 l 713 714 m 228 965 l 572 965 l 572 847 l 228 847 "},"ų":{"ha":801,"x_min":0,"x_max":0,"o":"m 713 0 l 711 0 l 625 -112 b 608 -150 614 -125 608 -137 b 651 -192 608 -175 628 -192 b 689 -182 665 -192 678 -187 l 711 -272 b 619 -293 692 -283 657 -293 b 488 -172 553 -293 488 -251 b 525 -75 488 -132 500 -108 l 583 0 l 574 0 l 574 226 b 332 -18 565 99 479 -18 b 89 242 167 -18 89 104 l 89 714 l 228 714 l 228 282 b 392 114 228 171 299 114 b 574 296 499 114 574 192 l 574 714 l 713 714 "},"ů":{"ha":801,"x_min":0,"x_max":0,"o":"m 713 0 l 574 0 l 574 226 b 332 -18 565 99 479 -18 b 89 242 167 -18 89 104 l 89 714 l 228 714 l 228 282 b 392 114 228 171 299 114 b 574 296 499 114 574 192 l 574 714 l 713 714 m 253 928 b 399 1071 253 1011 315 1071 b 549 929 488 1071 549 1011 b 400 786 549 847 486 786 b 253 928 315 786 253 847 m 340 928 b 400 867 340 894 364 867 b 461 929 438 867 461 894 b 399 990 461 963 438 990 b 340 928 364 990 340 963 "},"ũ":{"ha":801,"x_min":0,"x_max":0,"o":"m 713 0 l 574 0 l 574 226 b 332 -18 565 99 479 -18 b 89 242 167 -18 89 104 l 89 714 l 228 714 l 228 282 b 392 114 228 171 299 114 b 574 296 499 114 574 192 l 574 714 l 713 714 m 174 849 b 301 988 176 936 231 988 b 392 958 336 988 368 972 l 426 938 b 475 918 443 928 460 918 b 525 981 506 918 525 942 l 525 990 l 614 950 b 486 811 611 864 557 811 b 399 840 451 811 425 824 l 365 861 b 314 881 350 871 335 881 b 263 817 283 881 263 856 l 263 806 l 174 849 "},"v":{"ha":786,"x_min":0,"x_max":0,"o":"m 29 714 l 176 714 l 396 21 l 607 714 l 757 714 l 524 0 l 263 0 "},"w":{"ha":1146,"x_min":0,"x_max":0,"o":"m 29 714 l 175 714 l 315 22 l 444 714 l 700 714 l 831 22 l 974 714 l 1118 714 l 957 0 l 700 0 l 575 692 l 444 0 l 188 0 "},"ẃ":{"ha":1146,"x_min":0,"x_max":0,"o":"m 29 714 l 175 714 l 315 22 l 444 714 l 700 714 l 831 22 l 974 714 l 1118 714 l 957 0 l 700 0 l 575 692 l 444 0 l 188 0 m 585 1017 l 725 1017 l 618 801 l 513 801 "},"ŵ":{"ha":1146,"x_min":0,"x_max":0,"o":"m 29 714 l 175 714 l 315 22 l 444 714 l 700 714 l 831 22 l 974 714 l 1118 714 l 957 0 l 700 0 l 575 692 l 444 0 l 188 0 m 465 1017 l 688 1017 l 778 801 l 658 801 l 576 994 l 496 801 l 375 801 "},"ẅ":{"ha":1146,"x_min":0,"x_max":0,"o":"m 29 714 l 175 714 l 315 22 l 444 714 l 700 714 l 831 22 l 974 714 l 1118 714 l 957 0 l 700 0 l 575 692 l 444 0 l 188 0 m 376 1004 l 522 1004 l 522 849 l 376 849 m 624 1004 l 769 1004 l 769 849 l 624 849 "},"ẁ":{"ha":1146,"x_min":0,"x_max":0,"o":"m 29 714 l 175 714 l 315 22 l 444 714 l 700 714 l 831 22 l 974 714 l 1118 714 l 957 0 l 700 0 l 575 692 l 444 0 l 188 0 m 574 1017 l 646 801 l 540 801 l 433 1017 "},"x":{"ha":713,"x_min":0,"x_max":0,"o":"m 219 368 l 38 714 l 186 714 l 358 379 l 526 714 l 675 714 l 494 363 l 686 0 l 538 0 l 358 356 l 174 0 l 26 0 "},"y":{"ha":813,"x_min":0,"x_max":0,"o":"m 29 714 l 179 714 l 397 22 l 631 714 l 785 714 l 429 -292 l 281 -292 l 388 0 l 265 0 "},"ý":{"ha":813,"x_min":0,"x_max":0,"o":"m 29 714 l 179 714 l 397 22 l 631 714 l 785 714 l 429 -292 l 281 -292 l 388 0 l 265 0 m 417 1011 l 557 1011 l 450 796 l 344 796 "},"ŷ":{"ha":813,"x_min":0,"x_max":0,"o":"m 29 714 l 179 714 l 397 22 l 631 714 l 785 714 l 429 -292 l 281 -292 l 388 0 l 265 0 m 297 1011 l 519 1011 l 610 796 l 490 796 l 408 989 l 328 796 l 207 796 "},"ÿ":{"ha":813,"x_min":0,"x_max":0,"o":"m 29 714 l 179 714 l 397 22 l 631 714 l 785 714 l 429 -292 l 281 -292 l 388 0 l 265 0 m 210 999 l 356 999 l 356 843 l 210 843 m 457 999 l 603 999 l 603 843 l 457 843 "},"ỳ":{"ha":813,"x_min":0,"x_max":0,"o":"m 29 714 l 179 714 l 397 22 l 631 714 l 785 714 l 429 -292 l 281 -292 l 388 0 l 265 0 m 407 1011 l 479 796 l 374 796 l 267 1011 "},"z":{"ha":731,"x_min":0,"x_max":0,"o":"m 61 256 l 640 589 l 74 589 l 74 714 l 663 714 l 663 454 l 83 125 l 669 125 l 669 0 l 61 0 "},"ź":{"ha":731,"x_min":0,"x_max":0,"o":"m 61 256 l 640 589 l 74 589 l 74 714 l 663 714 l 663 454 l 83 125 l 669 125 l 669 0 l 61 0 m 371 1017 l 511 1017 l 404 801 l 299 801 "},"ž":{"ha":731,"x_min":0,"x_max":0,"o":"m 61 256 l 640 589 l 74 589 l 74 714 l 663 714 l 663 454 l 83 125 l 669 125 l 669 0 l 61 0 m 282 1017 l 364 824 l 444 1017 l 565 1017 l 475 801 l 253 801 l 163 1017 "},"ż":{"ha":731,"x_min":0,"x_max":0,"o":"m 61 256 l 640 589 l 74 589 l 74 714 l 663 714 l 663 454 l 83 125 l 669 125 l 669 0 l 61 0 m 294 1006 l 439 1006 l 439 842 l 294 842 "},"ª":{"ha":635,"x_min":0,"x_max":0,"o":"m 267 418 b 82 592 169 418 82 482 b 268 760 82 692 160 749 l 444 778 l 444 782 b 318 894 444 844 400 894 b 199 806 243 894 208 849 l 101 833 b 318 990 126 931 206 990 b 553 782 471 990 553 889 l 553 432 l 443 432 l 443 606 b 267 418 443 501 390 418 m 193 592 b 294 510 193 536 242 510 b 444 661 404 510 444 586 l 444 690 l 285 672 b 193 592 229 667 193 640 "},"º":{"ha":742,"x_min":0,"x_max":0,"o":"m 371 417 b 82 703 204 417 82 538 b 372 990 82 868 204 990 b 660 703 535 990 660 868 b 371 417 660 539 533 417 m 196 703 b 371 517 196 592 268 517 b 546 703 472 517 546 593 b 371 889 546 813 472 889 b 196 703 268 889 196 811 "},"⁄":{"ha":650,"x_min":0,"x_max":0,"o":"m 500 1044 l 644 1044 l 150 -71 l 6 -71 "},"½":{"ha":1179,"x_min":0,"x_max":0,"o":"m 771 1028 l 890 1028 l 336 -57 l 215 -57 m 61 858 b 218 963 161 858 218 914 l 218 972 l 328 972 l 328 422 l 219 422 l 219 922 b 61 749 219 790 129 749 m 733 422 b 910 561 749 494 808 561 b 1096 393 1032 561 1096 474 b 975 222 1096 325 1064 264 l 760 101 l 1104 101 l 1104 0 l 738 0 l 738 196 l 928 306 b 986 393 972 333 986 358 b 910 461 986 428 957 461 b 825 388 857 461 832 424 l 733 422 "},"¼":{"ha":1139,"x_min":0,"x_max":0,"o":"m 771 1028 l 890 1028 l 336 -57 l 215 -57 m 61 858 b 218 963 161 858 218 914 l 218 972 l 328 972 l 328 422 l 219 422 l 219 922 b 61 749 219 790 129 749 m 668 321 l 822 550 l 943 550 l 690 197 l 915 197 l 915 324 l 1022 324 l 1022 197 l 1092 197 l 1092 100 l 1022 100 l 1022 0 l 915 0 l 915 100 l 668 100 "},"¾":{"ha":1200,"x_min":0,"x_max":0,"o":"m 832 1028 l 951 1028 l 396 -57 l 276 -57 m 165 560 b 254 494 171 531 204 494 b 344 572 308 494 344 522 b 258 647 344 619 307 647 l 215 647 l 215 735 l 250 735 b 326 801 304 735 326 768 b 250 868 326 836 296 868 b 167 794 199 868 172 831 l 76 829 b 254 968 88 901 153 968 b 436 828 375 968 436 893 b 301 732 436 776 403 732 b 454 572 404 724 454 646 b 254 396 454 476 379 396 b 75 522 160 396 94 456 m 728 321 l 882 550 l 1004 550 l 750 197 l 975 197 l 975 324 l 1083 324 l 1083 197 l 1153 197 l 1153 100 l 1083 100 l 1083 0 l 975 0 l 975 100 l 728 100 "},"¹":{"ha":442,"x_min":0,"x_max":0,"o":"m 219 922 b 61 749 219 790 129 749 l 61 858 b 218 963 161 858 218 914 l 218 972 l 328 972 l 328 422 l 219 422 l 219 922 "},"²":{"ha":519,"x_min":0,"x_max":0,"o":"m 78 618 l 268 728 b 326 815 313 756 326 781 b 250 883 326 850 297 883 b 165 810 197 883 172 846 l 74 844 b 250 983 89 917 149 983 b 436 815 372 983 436 896 b 315 644 436 747 404 686 l 100 524 l 444 524 l 444 422 l 78 422 "},"³":{"ha":531,"x_min":0,"x_max":0,"o":"m 254 411 b 75 538 160 411 94 471 l 165 575 b 254 510 171 546 204 510 b 344 588 308 510 344 538 b 258 663 344 635 307 663 l 215 663 l 215 750 l 250 750 b 326 817 304 750 326 783 b 250 883 326 851 296 883 b 167 810 199 883 172 846 l 76 844 b 254 983 88 917 153 983 b 436 843 375 983 436 908 b 301 747 436 792 403 747 b 454 588 404 739 454 661 b 254 411 454 492 379 411 "},".":{"ha":332,"x_min":0,"x_max":0,"o":"m 81 188 l 253 188 l 253 0 l 81 0 "},",":{"ha":335,"x_min":0,"x_max":0,"o":"m 60 -143 b 150 -14 124 -125 150 -82 l 150 0 l 83 0 l 83 188 l 256 188 l 256 -14 b 92 -231 256 -111 204 -200 l 60 -143 "},":":{"ha":332,"x_min":0,"x_max":0,"o":"m 81 188 l 253 188 l 253 0 l 81 0 m 81 713 l 253 713 l 253 525 l 81 525 "},";":{"ha":335,"x_min":0,"x_max":0,"o":"m 60 -143 b 150 -14 124 -125 150 -82 l 150 0 l 83 0 l 83 188 l 256 188 l 256 -14 b 92 -231 256 -111 204 -200 l 60 -143 m 81 713 l 253 713 l 253 525 l 81 525 "},"…":{"ha":1026,"x_min":0,"x_max":0,"o":"m 81 188 l 253 188 l 253 0 l 81 0 m 428 188 l 600 188 l 600 0 l 428 0 m 775 188 l 947 188 l 947 0 l 775 0 "},"!":{"ha":410,"x_min":0,"x_max":0,"o":"m 128 589 l 128 972 l 272 972 l 272 589 l 249 293 l 151 293 m 119 188 l 292 188 l 292 0 l 119 0 "},"¡":{"ha":410,"x_min":0,"x_max":0,"o":"m 249 415 l 272 119 l 272 -264 l 128 -264 l 128 119 l 151 415 m 119 708 l 292 708 l 292 521 l 119 521 "},"?":{"ha":758,"x_min":0,"x_max":0,"o":"m 294 343 b 378 517 294 431 338 481 l 461 588 b 533 726 506 626 533 661 b 375 867 533 804 472 867 b 214 713 289 867 214 811 b 222 658 214 689 218 675 l 90 683 b 85 725 86 697 85 711 b 375 990 86 883 214 990 b 674 726 563 990 674 867 b 554 506 674 617 613 554 l 481 444 b 428 336 451 419 428 393 l 428 278 l 294 278 l 294 343 m 276 188 l 449 188 l 449 0 l 276 0 "},"¿":{"ha":749,"x_min":0,"x_max":0,"o":"m 454 365 b 371 192 454 278 411 228 l 288 121 b 215 -18 243 82 215 47 b 374 -158 215 -96 276 -158 b 535 -4 460 -158 535 -103 b 526 50 535 19 531 33 l 658 25 b 664 -17 663 11 664 -3 b 374 -282 663 -175 535 -282 b 75 -18 186 -282 75 -158 b 194 203 75 92 136 154 l 268 264 b 321 372 297 289 321 315 l 321 431 l 454 431 l 454 365 m 301 708 l 474 708 l 474 521 l 301 521 "},"·":{"ha":374,"x_min":0,"x_max":0,"o":"m 101 525 l 274 525 l 274 338 l 101 338 "},"•":{"ha":644,"x_min":0,"x_max":0,"o":"m 322 192 b 83 431 185 192 83 299 b 322 669 83 563 185 669 b 561 431 460 669 561 563 b 322 192 561 299 460 192 "},"*":{"ha":575,"x_min":0,"x_max":0,"o":"m 99 551 l 204 700 l 38 761 l 72 857 l 236 797 l 236 972 l 339 972 l 339 797 l 503 857 l 538 761 l 368 699 l 475 551 l 392 493 l 286 640 l 182 493 "},"#":{"ha":751,"x_min":0,"x_max":0,"o":"m 385 290 l 292 290 l 256 97 l 140 97 l 176 290 l 75 290 l 75 397 l 197 397 l 231 574 l 75 574 l 75 681 l 251 681 l 288 875 l 403 875 l 367 681 l 460 681 l 496 875 l 611 875 l 575 681 l 676 681 l 676 574 l 554 574 l 521 397 l 676 397 l 676 290 l 500 290 l 464 97 l 349 97 m 406 397 l 439 574 l 346 574 l 313 397 "},"/":{"ha":675,"x_min":0,"x_max":0,"o":"m 468 1042 l 611 1042 l 207 -150 l 64 -150 "},"\\":{"ha":675,"x_min":0,"x_max":0,"o":"m 207 1042 l 611 -150 l 468 -150 l 64 1042 "},"-":{"ha":576,"x_min":0,"x_max":0,"o":"m 93 465 l 483 465 l 483 343 l 93 343 "},"–":{"ha":914,"x_min":0,"x_max":0,"o":"m 93 468 l 821 468 l 821 346 l 93 346 "},"—":{"ha":1282,"x_min":0,"x_max":0,"o":"m 93 468 l 1189 468 l 1189 346 l 93 346 "},"_":{"ha":486,"x_min":0,"x_max":0,"o":"m 3 -40 l 483 -40 l 483 -158 l 3 -158 "},"(":{"ha":658,"x_min":0,"x_max":0,"o":"m 472 -239 b 68 417 257 -135 68 94 b 472 1072 68 739 257 968 l 538 958 b 210 417 351 861 210 675 b 538 -125 210 158 351 -28 l 472 -239 "},")":{"ha":658,"x_min":0,"x_max":0,"o":"m 121 -125 b 449 417 307 -28 449 158 b 121 958 449 675 307 861 l 186 1072 b 590 417 401 968 590 739 b 186 -239 590 94 401 -135 l 121 -125 "},"{":{"ha":685,"x_min":0,"x_max":0,"o":"m 467 -237 b 219 3 339 -237 219 -167 l 219 307 b 128 399 219 354 203 399 l 118 399 l 118 436 l 128 436 b 219 528 203 436 219 481 l 219 831 b 467 1072 219 1001 339 1072 l 533 1072 l 533 950 l 475 950 b 356 825 415 950 356 917 l 356 593 b 150 417 356 500 311 417 b 356 238 324 417 356 331 l 356 8 b 475 -117 356 -83 415 -117 l 533 -117 l 533 -237 l 467 -237 "},"}":{"ha":685,"x_min":0,"x_max":0,"o":"m 218 1071 b 465 831 346 1071 465 1000 l 465 526 b 557 435 465 479 482 435 l 567 435 l 567 397 l 557 397 b 465 306 482 397 465 353 l 465 3 b 218 -239 465 -168 346 -239 l 151 -239 l 151 -117 l 210 -117 b 329 8 269 -117 329 -83 l 329 240 b 535 417 329 333 374 417 b 329 596 361 417 329 503 l 329 825 b 210 950 329 917 269 950 l 151 950 l 151 1071 l 218 1071 "},"[":{"ha":582,"x_min":0,"x_max":0,"o":"m 118 1072 l 432 1072 l 432 951 l 254 951 l 254 -117 l 432 -117 l 432 -237 l 118 -237 "},"]":{"ha":582,"x_min":0,"x_max":0,"o":"m 150 -237 l 150 -117 l 328 -117 l 328 951 l 150 951 l 150 1072 l 464 1072 l 464 -237 "},"‚":{"ha":332,"x_min":0,"x_max":0,"o":"m 60 -143 b 150 -14 124 -125 150 -82 l 150 0 l 83 0 l 83 188 l 256 188 l 256 -14 b 92 -231 256 -111 204 -200 l 60 -143 "},"„":{"ha":586,"x_min":0,"x_max":0,"o":"m 318 -143 b 408 -14 382 -125 408 -82 l 408 0 l 342 0 l 342 188 l 514 188 l 514 -14 b 350 -231 514 -111 463 -200 l 318 -143 m 68 -143 b 158 -14 132 -125 158 -82 l 158 0 l 92 0 l 92 188 l 264 188 l 264 -14 b 100 -231 264 -111 213 -200 l 68 -143 "},"“":{"ha":581,"x_min":0,"x_max":0,"o":"m 265 889 b 175 760 201 871 175 828 l 175 746 l 242 746 l 242 558 l 69 558 l 69 760 b 233 976 69 857 121 946 l 265 889 m 321 760 b 485 976 321 857 372 946 l 517 889 b 426 760 453 871 426 828 l 426 746 l 493 746 l 493 558 l 321 558 "},"”":{"ha":581,"x_min":0,"x_max":0,"o":"m 322 642 b 413 771 386 660 413 703 l 413 785 l 346 785 l 346 972 l 518 972 l 518 771 b 354 554 518 674 467 585 l 322 642 m 72 642 b 163 771 136 660 163 703 l 163 785 l 96 785 l 96 972 l 268 972 l 268 771 b 104 554 268 674 217 585 l 72 642 "},"‘":{"ha":331,"x_min":0,"x_max":0,"o":"m 265 890 b 175 761 201 872 175 829 l 175 747 l 242 747 l 242 560 l 69 560 l 69 761 b 233 978 69 858 121 947 l 265 890 "},"’":{"ha":331,"x_min":0,"x_max":0,"o":"m 65 642 b 156 771 129 660 156 703 l 156 785 l 89 785 l 89 972 l 261 972 l 261 771 b 97 554 261 674 210 585 l 65 642 "},"«":{"ha":731,"x_min":0,"x_max":0,"o":"m 367 513 l 649 675 l 649 532 l 389 394 l 649 258 l 649 115 l 367 278 m 82 513 l 364 675 l 364 532 l 104 394 l 364 258 l 364 115 l 82 278 "},"»":{"ha":731,"x_min":0,"x_max":0,"o":"m 367 115 l 367 258 l 626 394 l 367 532 l 367 675 l 649 513 l 649 278 m 82 258 l 342 394 l 82 532 l 82 675 l 364 513 l 364 278 l 82 115 "},"‹":{"ha":446,"x_min":0,"x_max":0,"o":"m 82 513 l 364 675 l 364 532 l 104 394 l 364 258 l 364 115 l 82 278 "},"›":{"ha":446,"x_min":0,"x_max":0,"o":"m 82 115 l 82 258 l 342 394 l 82 532 l 82 675 l 364 513 l 364 278 "},"\"":{"ha":436,"x_min":0,"x_max":0,"o":"m 251 972 l 375 972 l 367 685 l 260 685 m 185 972 l 176 685 l 69 685 l 61 972 "},"'":{"ha":246,"x_min":0,"x_max":0,"o":"m 61 972 l 185 972 l 176 685 l 69 685 "},"@":{"ha":1247,"x_min":0,"x_max":0,"o":"m 642 -197 b 61 360 321 -197 61 14 b 632 925 61 679 289 925 b 1186 406 949 925 1186 704 b 951 86 1186 225 1100 86 b 775 261 849 86 776 143 l 774 296 b 582 86 775 179 703 86 b 338 360 449 86 338 189 b 582 633 338 519 449 633 b 772 436 689 633 768 551 l 772 625 l 883 625 l 883 258 b 954 186 883 214 908 186 b 1071 406 1025 186 1071 278 b 632 811 1071 650 886 811 b 185 360 367 811 185 622 b 642 -85 185 92 371 -85 b 939 -22 757 -85 864 -60 l 974 -128 b 642 -197 911 -160 792 -197 m 458 360 b 617 189 458 258 531 189 b 776 360 715 189 775 263 b 617 529 776 454 715 529 b 458 360 528 529 458 464 "},"&":{"ha":906,"x_min":0,"x_max":0,"o":"m 407 -17 b 61 293 196 -17 61 122 b 357 589 61 438 158 572 b 131 768 225 585 132 657 b 401 990 131 888 235 990 b 692 763 574 990 672 885 l 565 715 b 403 863 553 799 500 863 b 258 731 315 863 258 804 b 403 599 258 668 306 599 l 418 599 l 418 471 l 401 471 b 204 290 286 471 204 397 b 407 115 204 188 283 115 b 621 338 540 115 621 204 l 621 358 l 500 358 l 500 481 l 878 481 l 878 358 l 758 358 l 758 338 b 407 -17 758 135 622 -17 "},"¶":{"ha":711,"x_min":0,"x_max":0,"o":"m 301 504 b 61 739 163 504 61 610 b 296 972 61 867 164 972 l 588 972 l 588 -62 l 475 -62 l 475 856 l 413 856 l 413 -62 l 301 -62 l 301 504 "},"§":{"ha":707,"x_min":0,"x_max":0,"o":"m 506 231 b 461 236 486 231 472 233 b 604 21 546 182 604 119 b 342 -211 604 -118 493 -211 b 89 -67 222 -211 126 -150 l 199 4 b 342 -89 217 -39 264 -89 b 467 21 410 -89 467 -50 b 382 135 467 72 433 104 l 178 260 b 54 435 97 308 54 368 b 208 578 54 522 122 578 b 251 572 226 578 240 575 b 110 786 167 626 110 689 b 372 1018 110 926 221 1018 b 625 874 492 1018 588 957 l 515 803 b 372 896 497 847 450 896 b 247 786 304 896 247 857 b 332 672 247 735 281 704 l 536 547 b 660 374 617 499 660 440 b 506 231 660 288 593 231 m 183 464 b 253 365 183 422 207 393 l 444 247 b 531 343 497 257 531 292 b 461 442 531 385 507 414 l 271 560 b 183 464 217 550 183 515 "},"©":{"ha":1118,"x_min":0,"x_max":0,"o":"m 558 -19 b 61 485 269 -19 61 201 b 556 990 61 764 272 990 b 1057 485 847 990 1057 765 b 558 -19 1057 201 850 -19 m 164 485 b 558 78 164 251 328 78 b 954 485 792 78 954 250 b 556 893 954 717 792 893 b 164 485 328 893 164 717 m 297 485 b 561 751 297 635 408 751 b 788 606 668 751 754 689 l 699 563 b 561 653 685 608 629 653 b 404 485 465 653 404 581 b 561 314 404 382 474 314 b 707 408 636 314 685 349 l 796 376 b 561 215 774 285 675 215 b 297 485 407 215 297 332 "},"®":{"ha":715,"x_min":0,"x_max":0,"o":"m 357 444 b 61 738 186 444 61 574 b 354 1031 61 900 186 1031 b 654 739 531 1031 654 901 b 357 444 654 579 532 444 m 133 738 b 357 511 133 610 226 511 b 582 739 492 511 582 607 b 354 963 582 871 490 963 b 133 738 226 963 133 868 m 243 889 l 383 889 b 479 813 444 889 479 856 b 392 746 479 772 450 746 b 478 669 460 746 478 701 l 478 589 l 410 589 l 410 649 b 364 689 410 674 394 689 l 311 689 l 311 589 l 243 589 m 363 747 b 408 789 393 747 408 768 b 363 832 408 811 393 832 l 311 832 l 311 747 "},"™":{"ha":1214,"x_min":0,"x_max":0,"o":"m 231 882 l 89 882 l 89 972 l 467 972 l 467 882 l 325 882 l 325 472 l 231 472 m 547 972 l 732 972 l 836 494 l 942 972 l 1125 972 l 1125 472 l 1032 472 l 1032 950 l 928 472 l 743 472 l 640 950 l 640 472 l 547 472 "},"°":{"ha":575,"x_min":0,"x_max":0,"o":"m 288 572 b 75 781 161 572 75 667 b 288 990 75 896 161 990 b 499 781 413 990 499 896 b 288 572 499 667 413 572 m 178 781 b 288 669 178 719 221 669 b 396 781 353 669 396 719 b 288 893 396 843 353 893 b 178 781 221 893 178 843 "},"|":{"ha":444,"x_min":0,"x_max":0,"o":"m 154 1088 l 290 1088 l 290 -292 l 154 -292 "},"†":{"ha":571,"x_min":0,"x_max":0,"o":"m 224 707 l 78 707 l 78 814 l 224 814 l 224 972 l 344 972 l 344 814 l 493 814 l 493 707 l 344 707 l 344 407 l 224 407 "},"‡":{"ha":571,"x_min":0,"x_max":0,"o":"m 224 407 l 78 407 l 78 514 l 224 514 l 224 707 l 78 707 l 78 814 l 224 814 l 224 972 l 344 972 l 344 814 l 493 814 l 493 707 l 344 707 l 344 514 l 493 514 l 493 407 l 344 407 l 344 249 l 224 249 "},"¢":{"ha":757,"x_min":0,"x_max":0,"o":"m 339 101 b 47 443 164 125 47 264 b 339 785 47 622 167 760 l 339 904 l 454 904 l 454 785 b 700 593 568 767 661 699 l 581 536 b 394 663 560 606 486 663 b 186 443 278 663 186 576 b 394 224 186 306 282 224 b 589 358 481 224 558 265 l 710 307 b 454 101 664 185 568 118 l 454 0 l 339 0 "},"$":{"ha":883,"x_min":0,"x_max":0,"o":"m 386 -15 b 78 242 228 4 114 94 l 211 282 b 447 115 236 176 319 115 b 657 269 579 115 657 183 b 510 419 657 353 599 399 l 365 454 b 119 722 238 483 119 556 b 396 988 119 857 222 969 l 396 1092 l 508 1092 l 508 986 b 782 757 654 968 756 883 l 651 718 b 447 861 632 800 558 861 b 261 722 321 861 261 793 b 400 589 261 640 325 606 l 544 553 b 803 269 693 517 803 429 b 499 -15 803 129 693 3 l 499 -118 l 386 -118 "},"€":{"ha":904,"x_min":0,"x_max":0,"o":"m 486 -18 b 150 297 324 -18 150 90 l 150 338 l 75 338 l 75 450 l 150 450 l 150 525 l 75 525 l 75 638 l 150 638 l 150 675 b 486 990 150 878 321 990 b 779 825 615 990 726 931 l 656 754 b 486 854 628 815 564 854 b 290 668 376 854 290 779 l 290 638 l 556 638 l 556 525 l 290 525 l 290 450 l 556 450 l 556 338 l 290 338 l 290 304 b 486 118 290 189 376 118 b 656 221 561 118 626 158 l 779 153 b 486 -18 726 44 608 -18 "},"£":{"ha":881,"x_min":0,"x_max":0,"o":"m 89 132 b 182 231 136 132 182 157 l 182 426 l 101 426 l 101 551 l 182 551 l 182 657 b 507 990 182 869 336 990 b 792 825 642 990 750 918 l 671 756 b 508 856 653 806 588 856 b 324 656 403 856 324 781 l 324 551 l 582 551 l 582 426 l 324 426 l 324 331 b 143 132 324 206 257 132 l 810 132 l 810 0 l 89 0 l 89 132 "},"¥":{"ha":925,"x_min":0,"x_max":0,"o":"m 176 501 l 269 501 l 33 972 l 188 972 l 417 501 l 510 501 l 732 972 l 892 972 l 654 501 l 750 501 l 750 383 l 535 383 l 535 282 l 750 282 l 750 164 l 535 164 l 535 0 l 390 0 l 390 164 l 176 164 l 176 282 l 390 282 l 390 383 l 176 383 "},"+":{"ha":611,"x_min":0,"x_max":0,"o":"m 247 378 l 7 378 l 7 488 l 247 488 l 247 733 l 364 733 l 364 488 l 604 488 l 604 378 l 364 378 l 364 131 l 247 131 "},"−":{"ha":611,"x_min":0,"x_max":0,"o":"m 7 488 l 604 488 l 604 378 l 7 378 "},"×":{"ha":521,"x_min":0,"x_max":0,"o":"m 7 254 l 185 432 l 7 610 l 83 685 l 260 507 l 438 685 l 514 610 l 336 432 l 514 254 l 438 179 l 260 356 l 83 179 "},"÷":{"ha":611,"x_min":0,"x_max":0,"o":"m 7 488 l 604 488 l 604 378 l 7 378 m 228 218 b 306 296 228 261 263 296 b 382 218 349 296 382 261 b 306 142 382 176 349 142 b 228 218 263 142 228 176 m 228 646 b 306 724 228 689 263 724 b 382 646 349 724 382 689 b 306 569 382 603 349 569 b 228 646 263 569 228 603 "},"=":{"ha":611,"x_min":0,"x_max":0,"o":"m 7 608 l 604 608 l 604 499 l 7 499 m 7 357 l 604 357 l 604 249 l 7 249 "},">":{"ha":610,"x_min":0,"x_max":0,"o":"m 7 231 l 581 433 l 7 635 l 7 760 l 603 539 l 603 326 l 7 106 "},"<":{"ha":610,"x_min":0,"x_max":0,"o":"m 7 326 l 7 539 l 603 760 l 603 635 l 29 433 l 603 231 l 603 106 "},"~":{"ha":699,"x_min":0,"x_max":0,"o":"m 47 360 b 228 529 60 464 131 529 b 467 433 336 529 392 433 b 551 544 524 433 551 479 l 650 488 b 469 318 636 389 571 318 b 231 414 354 318 314 414 b 147 300 179 414 147 368 l 47 360 "},"^":{"ha":756,"x_min":0,"x_max":0,"o":"m 274 972 l 482 972 l 674 456 l 556 456 l 378 950 l 201 456 l 82 456 "},"%":{"ha":1178,"x_min":0,"x_max":0,"o":"m 756 972 l 879 972 l 422 0 l 299 0 m 61 789 b 269 990 61 900 144 990 b 476 789 393 990 476 900 l 476 650 b 269 449 476 538 393 449 b 61 650 144 449 61 538 m 171 651 b 269 553 171 589 214 553 b 367 651 324 553 367 589 l 367 788 b 269 885 367 849 324 885 b 171 788 214 885 171 849 l 171 651 m 701 322 b 908 524 701 433 783 524 b 1117 322 1033 524 1117 433 l 1117 183 b 908 -18 1117 71 1033 -18 b 701 183 783 -18 701 71 m 811 185 b 908 86 811 122 854 86 b 1007 185 964 86 1007 122 l 1007 321 b 908 418 1007 382 964 418 b 811 321 854 418 811 382 l 811 185 "},"‰":{"ha":1400,"x_min":0,"x_max":0,"o":"m 756 972 l 879 972 l 422 0 l 299 0 m 61 789 b 269 990 61 900 144 990 b 476 789 393 990 476 900 l 476 650 b 269 449 476 538 393 449 b 61 650 144 449 61 538 m 171 651 b 269 553 171 589 214 553 b 367 651 324 553 367 589 l 367 788 b 269 885 367 849 324 885 b 171 788 214 885 171 849 l 171 651 m 703 321 b 878 524 703 433 768 524 b 1019 365 969 524 1019 457 b 1161 524 1019 457 1069 524 b 1336 321 1271 524 1336 433 l 1336 185 b 1161 -18 1336 72 1271 -18 b 1019 140 1069 -18 1019 49 b 878 -18 1019 49 969 -18 b 703 185 768 -18 703 72 m 811 186 b 911 88 811 125 856 88 b 1010 186 965 88 1010 125 l 1010 319 b 911 418 1010 381 965 418 b 811 319 856 418 811 381 l 811 186 m 1028 186 b 1128 88 1028 125 1072 88 b 1226 186 1183 88 1226 125 l 1226 319 b 1128 418 1226 381 1183 418 b 1028 319 1072 418 1028 381 l 1028 186 "},"↑":{"ha":1042,"x_min":0,"x_max":0,"o":"m 451 1003 b 64 571 451 842 335 571 l 64 719 b 449 1089 379 719 449 958 l 593 1089 b 978 719 593 958 663 719 l 978 571 b 590 1003 707 571 590 842 l 590 0 l 451 0 l 451 1003 "},"↗":{"ha":1008,"x_min":0,"x_max":0,"o":"m 772 988 b 193 956 658 874 385 764 l 299 1061 b 832 1050 521 838 739 958 l 933 947 b 944 415 842 856 722 638 l 839 310 b 871 889 647 501 757 775 l 161 181 l 64 278 l 772 988 "},"→":{"ha":1215,"x_min":0,"x_max":0,"o":"m 1067 525 b 635 913 906 525 635 642 l 783 913 b 1153 528 783 597 1022 528 l 1153 383 b 783 -1 1022 383 783 314 l 635 -1 b 1067 386 635 269 906 386 l 64 386 l 64 525 l 1067 525 "},"↘":{"ha":1008,"x_min":0,"x_max":0,"o":"m 64 682 l 161 781 l 871 71 b 839 650 757 185 647 458 l 944 546 b 933 13 722 322 842 104 l 832 -90 b 299 -101 739 1 521 122 l 193 4 b 772 -28 385 196 658 86 "},"↓":{"ha":1042,"x_min":0,"x_max":0,"o":"m 451 986 l 590 986 l 590 -17 b 978 415 590 144 707 415 l 978 267 b 593 -103 663 267 593 28 l 449 -103 b 64 267 449 28 379 267 l 64 415 b 451 -17 335 415 451 144 "},"↙":{"ha":1008,"x_min":0,"x_max":0,"o":"m 236 -28 b 815 4 350 86 624 196 l 710 -101 b 176 -90 488 122 269 1 l 75 13 b 64 546 167 104 286 322 l 169 650 b 138 71 360 458 251 186 l 846 781 l 944 682 l 236 -28 "},"←":{"ha":1215,"x_min":0,"x_max":0,"o":"m 1153 525 l 1153 386 l 150 386 b 582 -1 311 386 582 269 l 433 -1 b 64 383 433 314 194 383 l 64 528 b 433 913 194 528 433 597 l 582 913 b 150 525 582 642 311 525 "},"↖":{"ha":1008,"x_min":0,"x_max":0,"o":"m 944 278 l 846 181 l 138 889 b 169 310 251 775 360 501 l 64 415 b 75 947 286 638 167 856 l 176 1050 b 710 1061 269 958 488 838 l 815 956 b 236 988 624 764 350 874 "},"̦":{"ha":0,"x_min":0,"x_max":0,"o":"m 61 -262 b 125 -196 97 -256 125 -242 l 125 -192 l 75 -192 l 75 -58 l 217 -58 l 217 -199 b 88 -340 217 -279 165 -329 l 61 -262 "},"¨":{"ha":515,"x_min":0,"x_max":0,"o":"m 308 1014 l 454 1014 l 454 858 l 308 858 m 61 1014 l 207 1014 l 207 858 l 61 858 "},"˙":{"ha":267,"x_min":0,"x_max":0,"o":"m 61 1015 l 206 1015 l 206 851 l 61 851 "},"`":{"ha":335,"x_min":0,"x_max":0,"o":"m 168 811 l 61 1026 l 201 1026 l 274 811 "},"´":{"ha":335,"x_min":0,"x_max":0,"o":"m 133 1026 l 274 1026 l 167 811 l 61 811 "},"˝":{"ha":551,"x_min":0,"x_max":0,"o":"m 350 1036 l 486 1036 l 375 811 l 272 811 m 143 1036 l 279 1036 l 168 811 l 65 811 "},"ˆ":{"ha":525,"x_min":0,"x_max":0,"o":"m 374 1026 l 464 811 l 344 811 l 263 1004 l 182 811 l 61 811 l 151 1026 "},"ˇ":{"ha":525,"x_min":0,"x_max":0,"o":"m 151 811 l 61 1026 l 181 1026 l 263 833 l 343 1026 l 464 1026 l 374 811 "},"˘":{"ha":501,"x_min":0,"x_max":0,"o":"m 251 819 b 60 1000 135 819 60 890 l 60 1019 l 163 1019 l 163 1003 b 251 919 163 957 190 919 b 339 1003 310 919 339 957 l 339 1019 l 442 1019 l 442 1000 b 251 819 442 890 367 819 "},"˚":{"ha":413,"x_min":0,"x_max":0,"o":"m 206 796 b 58 938 121 796 58 857 b 204 1081 58 1021 121 1081 b 354 939 293 1081 354 1021 b 206 796 354 857 292 796 m 146 938 b 206 876 146 904 169 876 b 267 939 243 876 267 904 b 204 1000 267 972 243 1000 b 146 938 169 1000 146 972 "},"˜":{"ha":563,"x_min":0,"x_max":0,"o":"m 374 821 b 286 850 339 821 313 833 l 253 871 b 201 890 238 881 222 890 b 150 826 171 890 150 865 l 150 815 l 61 858 b 189 997 64 946 118 997 b 279 968 224 997 256 982 l 314 947 b 363 928 331 938 347 928 b 413 990 393 928 413 951 l 413 1000 l 501 960 b 374 821 499 874 444 821 "},"¯":{"ha":475,"x_min":0,"x_max":0,"o":"m 65 975 l 410 975 l 410 857 l 65 857 "},"¸":{"ha":371,"x_min":0,"x_max":0,"o":"m 176 -293 b 68 -229 131 -293 88 -269 l 133 -189 b 175 -214 142 -206 157 -214 b 222 -167 199 -214 222 -196 b 175 -121 222 -139 199 -121 b 133 -144 157 -121 142 -131 l 61 -101 l 103 28 l 193 28 l 140 -122 b 215 -65 156 -79 186 -65 b 308 -168 264 -65 308 -108 b 176 -293 308 -242 254 -293 "},"˛":{"ha":347,"x_min":0,"x_max":0,"o":"m 193 -293 b 61 -172 126 -293 61 -251 b 99 -75 61 -132 74 -108 l 157 0 l 285 0 l 199 -112 b 182 -150 188 -125 182 -137 b 225 -192 182 -175 201 -192 b 263 -182 239 -192 251 -187 l 285 -272 b 193 -293 265 -283 231 -293 "}}}
